<?xml version="1.0" encoding="iso-8859-1"?>
<!-- Generator: Adobe Illustrator 19.0.0, SVG Export Plug-In . SVG Version: 6.00 Build 0)  -->
<svg version="1.1" id="Capa_1" xmlns="http://www.w3.org/2000/svg" xmlns:xlink="http://www.w3.org/1999/xlink" x="0px" y="0px"
	 viewBox="0 0 511.998 511.998" style="enable-background:new 0 0 511.998 511.998;" xml:space="preserve">
<g>
	<g>
		<path d="M387.887,385.884c-5.515,0-9.991,4.476-9.991,9.991c0,5.515,4.476,9.991,9.991,9.991c5.515,0,9.991-4.476,9.991-9.991
			C397.878,390.36,393.402,385.884,387.887,385.884z"/>
	</g>
</g>
<g>
	<g>
		<path d="M124.12,385.884c-5.515,0-9.991,4.476-9.991,9.991c0,5.515,4.476,9.991,9.991,9.991c5.515,0,9.991-4.476,9.991-9.991
			C134.111,390.36,129.635,385.884,124.12,385.884z"/>
	</g>
</g>
<g>
	<g>
		<path d="M246.149,405.624l-52.494-212.043c0,0,0,0,0-0.001l-6.811-27.501h7.614c4.585,0,8.581-3.12,9.692-7.567
			c11.274-45.634,11.888-45.318,11.888-52.38c0-33.055-41.235-59.947-91.919-59.947c-50.684,0-91.919,26.892-91.919,59.947
			c0,7.04,0.592,6.66,11.888,52.38c1.111,4.447,5.107,7.567,9.692,7.567h7.577L1.308,405.596
			c-7.11,28.263,15.548,60.218,48.877,60.218h145.082C229.067,465.814,253.059,433.635,246.149,405.624z M52.183,106.131
			c0-21.29,33.615-39.965,71.936-39.965c38.321,0,71.937,18.674,71.937,39.965H52.183z M56.586,126.114h135.067l-4.996,19.982
			c-25.149,0-99.851,0-125.076,0L56.586,126.114z M171.204,186.061H76.95l5.01-19.982h84.298L171.204,186.061z M195.267,445.831
			H50.185c-18.827,0-32.986-17.151-29.431-35.628l1.087-4.337h62.314c5.517,0,9.991-4.474,9.991-9.991
			c0-5.517-4.474-9.991-9.991-9.991H26.852l45.089-179.841h104.212l44.524,179.841h-56.591c-5.517,0-9.991,4.474-9.991,9.991
			c0,5.517,4.474,9.991,9.991,9.991h61.539l1.07,4.323C230.289,428.885,213.847,445.831,195.267,445.831z"/>
	</g>
</g>
<g>
	<g>
		<path d="M511.011,406.065c-0.03-0.16-0.066-0.32-0.105-0.478l-60.248-239.51h7.566c4.585,0,8.581-3.12,9.692-7.567
			c11.274-45.634,11.888-45.318,11.888-52.38c0-33.055-41.235-59.947-91.919-59.947s-91.919,26.892-91.919,59.947
			c0,7.04,0.592,6.66,11.888,52.38c1.111,4.447,5.108,7.567,9.692,7.567h7.566l-60.248,239.51
			c-7.08,28.674,15.776,60.226,48.875,60.226h148.289C493.585,465.814,517.188,436.944,511.011,406.065z M315.95,106.131
			c0-21.29,33.615-39.965,71.936-39.965s71.937,18.674,71.937,39.965H315.95z M320.354,126.114h135.067l-4.996,19.982H325.35
			L320.354,126.114z M435.077,186.061h-94.384l5.027-19.982h84.333L435.077,186.061z M462.031,445.831H313.742
			c-18.825,0-32.983-17.146-29.432-35.624l1.092-4.341h62.52c5.517,0,9.991-4.474,9.991-9.991c0-5.517-4.474-9.991-9.991-9.991
			h-57.493l45.239-179.841h104.435l45.242,179.841h-57.493c-5.517,0-9.991,4.474-9.991,9.991c0,5.517,4.474,9.991,9.991,9.991h62.52
			l1.092,4.341C495.016,428.694,480.848,445.831,462.031,445.831z"/>
	</g>
</g>
<g>
	<g>
		<path d="M134.111,285.972h-19.982c-5.514,0-9.991-4.475-9.991-9.991c0-5.509,4.482-9.991,9.991-9.991h39.965
			c5.517,0,9.991-4.474,9.991-9.991c0-5.517-4.474-9.991-9.991-9.991h-39.965c-16.527,0-29.974,13.446-29.974,29.974
			c0,16.56,13.413,29.974,29.974,29.974h19.982c5.509,0,9.991,4.482,9.991,9.991c0,5.514-4.475,9.991-9.991,9.991H94.146
			c-5.517,0-9.991,4.474-9.991,9.991s4.474,9.991,9.991,9.991h39.965c16.561,0,29.974-13.413,29.974-29.974
			C164.084,299.419,150.638,285.972,134.111,285.972z"/>
	</g>
</g>
<g>
	<g>
		<path d="M407.869,246.008h-39.965c-5.517,0-9.991,4.474-9.991,9.991c0,9.67,0,70.195,0,79.929c0,5.517,4.474,9.991,9.991,9.991
			c5.517,0,9.991-4.474,9.991-9.991v-29.974h29.974c16.561,0,29.974-13.413,29.974-29.974
			C437.843,259.454,424.397,246.008,407.869,246.008z M407.869,285.972h-29.974V265.99h29.974c5.509,0,9.991,4.482,9.991,9.991
			C417.86,281.496,413.385,285.972,407.869,285.972z"/>
	</g>
</g>
<g>
</g>
<g>
</g>
<g>
</g>
<g>
</g>
<g>
</g>
<g>
</g>
<g>
</g>
<g>
</g>
<g>
</g>
<g>
</g>
<g>
</g>
<g>
</g>
<g>
</g>
<g>
</g>
<g>
</g>
</svg>
