<?xml version="1.0" encoding="iso-8859-1"?>
<!-- Generator: Adobe Illustrator 19.0.0, SVG Export Plug-In . SVG Version: 6.00 Build 0)  -->
<svg version="1.1" id="Capa_1" xmlns="http://www.w3.org/2000/svg" xmlns:xlink="http://www.w3.org/1999/xlink" x="0px" y="0px"
	 viewBox="0 0 512 512" style="enable-background:new 0 0 512 512;" xml:space="preserve">
<g>
	<g>
		<path d="M422,206c-5.52,0-10,4.48-10,10s4.48,10,10,10c5.52,0,10-4.48,10-10S427.52,206,422,206z"/>
	</g>
</g>
<g>
	<g>
		<path d="M482,186h-10v-27.647c6.453-5.787,10-13.817,10-22.353c0-16.542-13.458-30-30-30V50c0-27.57-22.43-50-50-50h-71
			c-27.57,0-50,22.43-50,50v56c-16.575,0-30,13.425-30,30c0,8.864,3.867,16.84,10,22.337v235.31c-6.439,5.774-10,13.8-10,22.353
			c0,8.864,3.867,16.84,10,22.336V482c0,16.542,13.458,30,30,30h151c16.542,0,30-13.458,30-30v-43.647
			c6.453-5.787,10-13.817,10-22.353c0-8.864-3.867-16.84-10-22.336V366h10c16.542,0,30-13.458,30-30V216
			C512,199.458,498.542,186,482,186z M301,50c0-16.542,13.458-30,30-30h71c16.542,0,30,13.458,30,30v56H301V50z M452,482
			c0,5.514-4.486,10-10,10H291c-5.514,0-10-4.486-10-10v-36h171V482z M452,426H281c-5.514,0-10-4.486-10-10c0-5.52,4.479-10,10-10
			h171c5.514,0,10,4.486,10,10C462,421.52,457.521,426,452,426z M281,386V166h171c0,19.287,0,210.011,0,220H281z M452,146H281
			c-5.514,0-10-4.486-10-10c0-5.52,4.479-10,10-10c19.524,0,152.402,0,171,0c5.514,0,10,4.486,10,10C462,141.52,457.521,146,452,146
			z M492,336c0,5.514-4.486,10-10,10h-10V206h10c5.514,0,10,4.486,10,10V336z"/>
	</g>
</g>
<g>
	<g>
		<path d="M201,346H30c-16.575,0-30,13.424-30,30c0,8.864,3.867,16.84,10,22.336V462c0,27.57,22.43,50,50,50h111
			c27.57,0,50-22.43,50-50v-63.647c6.48-5.814,10-13.851,10-22.353C231,359.458,217.542,346,201,346z M201,462
			c0,16.542-13.458,30-30,30H60c-16.542,0-30-13.458-30-30v-56h171V462z M201,386H30c-5.514,0-10-4.486-10-10
			c0-5.521,4.479-10,10-10h171c5.514,0,10,4.486,10,10C211,381.521,206.521,386,201,386z"/>
	</g>
</g>
<g>
	<g>
		<path d="M422,246c-5.522,0-10,4.478-10,10v100c0,5.522,4.478,10,10,10c5.522,0,10-4.478,10-10V256
			C432,250.478,427.522,246,422,246z"/>
	</g>
</g>
<g>
</g>
<g>
</g>
<g>
</g>
<g>
</g>
<g>
</g>
<g>
</g>
<g>
</g>
<g>
</g>
<g>
</g>
<g>
</g>
<g>
</g>
<g>
</g>
<g>
</g>
<g>
</g>
<g>
</g>
</svg>
