<?xml version="1.0" encoding="iso-8859-1"?>
<!-- Generator: Adobe Illustrator 19.0.0, SVG Export Plug-In . SVG Version: 6.00 Build 0)  -->
<svg version="1.1" id="Capa_1" xmlns="http://www.w3.org/2000/svg" xmlns:xlink="http://www.w3.org/1999/xlink" x="0px" y="0px"
	 viewBox="0 0 512.001 512.001" style="enable-background:new 0 0 512.001 512.001;" xml:space="preserve">
<g>
	<g>
		<path d="M116,316c-5.52,0-10,4.48-10,10c0,5.52,4.48,10,10,10s10-4.48,10-10C126,320.48,121.52,316,116,316z"/>
	</g>
</g>
<g>
	<g>
		<path d="M510.818,401.281C509.077,398.03,505.688,396,502,396h-37.015c-1.507-7.407-4.67-14.379-9.305-20.405
			c0.208-3.163,0.32-6.374,0.32-9.595c0-40.779-16.975-79.73-47.966-110.499c9.259-16.891,21.593-42.462,25.025-64.127
			c4.768-4.768,15.976-15.974,26.075-26.065c2.176-2.169,6.13-1.551,8.285-0.992c10.252,2.672,21.284-0.319,28.793-7.815
			c11.724-11.724,11.725-30.696,0-42.422l-28.29-28.29c-11.725-11.725-30.698-11.725-42.423,0
			c-7.494,7.495-10.489,18.533-7.813,28.823c0.564,2.154,1.182,6.099-1.015,8.296l-26.037,26.027
			c-32.898,5.188-77.571,31.059-102.61,49.231C277.481,196.73,266.73,196,256,196c-53.104,0-103.104,17.478-140.79,49.212
			C77.028,277.364,56,320.261,56,366c0,3.223,0.112,6.434,0.321,9.597c-4.638,6.032-7.799,13.001-9.305,20.403H10
			c-3.688,0-7.077,2.03-8.817,5.281c-1.74,3.252-1.549,7.197,0.497,10.267l28.126,42.185C39.089,467.676,54.642,476,71.41,476
			h369.18c16.768,0,32.321-8.324,41.601-22.262l28.13-42.19C512.367,408.479,512.558,404.533,510.818,401.281z M430.812,137.051
			c6.76-6.76,9.028-16.784,6.226-27.488c-0.908-3.492,0.065-7.093,2.604-9.631c3.902-3.902,10.222-3.916,14.138,0l28.291,28.29
			c3.872,3.873,3.936,10.2,0.006,14.13c-2.545,2.541-6.138,3.516-9.622,2.609c-10.712-2.784-20.717-0.526-27.452,6.196
			c-4.621,4.618-9.474,9.468-13.838,13.83c-1.384-3.25-3.264-6.091-5.662-8.489c-2.397-2.397-5.235-4.276-8.483-5.66
			L430.812,137.051z M438.042,385.673c2.793,3.017,4.897,6.532,6.24,10.327H387.72c4.128-11.639,15.243-20,28.28-20
			C424.349,376,432.376,379.519,438.042,385.673z M284.079,227.212c18.943-18.937,79.544-55.169,112.395-58.896
			c4.37-0.5,11.773-0.786,14.884,2.326c2.331,2.329,3.157,7.615,2.326,14.891c-1.812,15.981-11.571,40.302-26.774,66.741
			c-0.001,0.002-0.002,0.003-0.003,0.005c-0.022,0.038-0.042,0.075-0.064,0.113c0,0.001,0,0.001-0.001,0.002
			c-10.917,18.976-23.798,37.271-32.055,45.527c-19.537,19.545-51.161,19.551-70.708-0.003
			C264.532,278.38,264.529,246.754,284.079,227.212z M256,216c3.647,0,7.296,0.101,10.937,0.283
			c-24.287,27.465-23.358,69.429,3.001,95.776c27.353,27.365,71.635,27.372,98.994,0.002c7.934-7.934,18.452-22.186,28.643-38.64
			c23.42,24.824,36.802,55.066,38.278,86.71C429.642,357.441,422.888,356,416,356c-16.338,0-30.87,7.876-40,20.031
			C366.87,363.876,352.338,356,336,356s-30.87,7.876-40,20.031C286.87,363.876,272.338,356,256,356s-30.87,7.876-40,20.031
			C206.87,363.876,192.338,356,176,356s-30.87,7.876-40,20.031C126.87,363.876,112.338,356,96,356
			c-6.887,0-13.641,1.441-19.849,4.129C79.866,280.131,159.108,216,256,216z M364.28,396h-56.56c4.128-11.639,15.243-20,28.28-20
			S360.152,384.361,364.28,396z M284.28,396h-56.56c4.128-11.639,15.243-20,28.28-20C269.036,376,280.152,384.361,284.28,396z
			 M204.28,396h-56.56c4.128-11.639,15.243-20,28.28-20S200.152,384.361,204.28,396z M73.978,385.652
			C79.624,379.519,87.651,376,96,376c13.036,0,24.152,8.361,28.28,20H67.72C69.065,392.202,71.174,388.681,73.978,385.652z
			 M465.546,442.649C459.98,451.009,450.65,456,440.59,456H71.41c-10.061,0-19.39-4.991-24.96-13.357L28.686,416h454.628
			L465.546,442.649z"/>
	</g>
</g>
<g>
	<g>
		<path d="M225.763,248.168c-1.194-5.393-6.532-8.795-11.925-7.602c-32.648,7.23-62.257,23.15-83.371,44.826
			c-3.854,3.956-3.771,10.287,0.186,14.141c3.952,3.849,10.282,3.776,14.14-0.185c18.426-18.916,44.482-32.856,73.369-39.254
			C223.555,258.9,226.957,253.56,225.763,248.168z"/>
	</g>
</g>
<g>
	<g>
		<path d="M102.046,174.323c20.171-13.441,20.227-43.164,0-56.643c-4.596-3.062-10.804-1.819-13.867,2.775
			c-3.063,4.596-1.82,10.805,2.776,13.867c8.274,5.514,8.406,17.754,0,23.357c-20.171,13.441-20.227,43.164,0,56.643
			c4.581,3.052,10.793,1.836,13.867-2.775c3.063-4.596,1.82-10.805-2.776-13.867C93.772,192.165,93.64,179.925,102.046,174.323z"/>
	</g>
</g>
<g>
	<g>
		<path d="M222.046,134.323c20.171-13.441,20.227-43.164,0-56.643c-4.596-3.062-10.804-1.819-13.867,2.775
			c-3.063,4.596-1.82,10.805,2.776,13.867c8.274,5.514,8.406,17.754,0,23.357c-20.171,13.441-20.227,43.164,0,56.643
			c4.581,3.052,10.793,1.836,13.867-2.775c3.063-4.596,1.82-10.805-2.776-13.867C213.772,152.165,213.64,139.925,222.046,134.323z"
			/>
	</g>
</g>
<g>
	<g>
		<path d="M162.046,94.323c20.171-13.441,20.227-43.164,0-56.643c-4.595-3.062-10.804-1.818-13.867,2.775
			c-3.063,4.596-1.82,10.805,2.776,13.867c8.274,5.514,8.406,17.754,0,23.357c-20.171,13.441-20.227,43.164,0,56.643
			c4.581,3.052,10.793,1.836,13.867-2.775c3.063-4.596,1.82-10.805-2.776-13.867C153.772,112.165,153.64,99.925,162.046,94.323z"/>
	</g>
</g>
<g>
</g>
<g>
</g>
<g>
</g>
<g>
</g>
<g>
</g>
<g>
</g>
<g>
</g>
<g>
</g>
<g>
</g>
<g>
</g>
<g>
</g>
<g>
</g>
<g>
</g>
<g>
</g>
<g>
</g>
</svg>
