<?xml version="1.0" encoding="iso-8859-1"?>
<!-- Generator: Adobe Illustrator 19.0.0, SVG Export Plug-In . SVG Version: 6.00 Build 0)  -->
<svg version="1.1" id="Capa_1" xmlns="http://www.w3.org/2000/svg" xmlns:xlink="http://www.w3.org/1999/xlink" x="0px" y="0px"
	 viewBox="0 0 512.001 512.001" style="enable-background:new 0 0 512.001 512.001;" xml:space="preserve">
<g>
	<g>
		<path d="M424.989,225.52c-3.91-3.91-10.24-3.91-14.15,0c-3.9,3.9-3.9,10.24,0,14.14c3.91,3.91,10.24,3.91,14.15,0
			C428.888,235.76,428.888,229.42,424.989,225.52z"/>
	</g>
</g>
<g>
	<g>
		<path d="M511.852,226.832c-2.214-30.338-28.553-53.094-58.897-50.875c-2.239,0.162-4.523,0.204-6.84,0.148l14.223-14.224
			c11.723-11.723,11.726-30.706,0-42.432c-11.696-11.695-30.727-11.695-42.421,0l-33.238,33.238
			c-5.373-4.005-10.474-8.401-15.215-13.143c-4.821-4.828-9.237-9.856-13.208-15.008l33.372-33.365
			c11.723-11.723,11.726-30.706,0-42.432c-11.691-11.69-30.724-11.692-42.432,0.002l-14.316,14.321
			c0.019-1.346,0.064-2.685,0.161-4.01c2.221-30.304-20.53-56.683-50.874-58.903c-30.35-2.203-56.687,20.544-58.9,50.882
			c-2.448,33.426,4.753,68.119,20.858,100.783l-73.695,73.704c-23.781,23.781-29.954,59.554-16.304,89.594L8.793,460.786
			c-11.724,11.724-11.725,30.696,0,42.421c11.694,11.694,30.666,11.758,42.43-0.009l146.358-146.7
			c29.51,11.743,63.119,5.013,85.981-17.849l74.127-74.118c31.696,15.402,67.289,23.832,103.278,21.201
			C491.305,283.52,514.066,257.175,511.852,226.832z M432.06,133.591c3.897-3.898,10.24-3.898,14.137,0
			c3.908,3.908,3.908,10.239,0,14.147l-24.233,24.233c-6.664-2.063-13.391-4.87-19.957-8.327L432.06,133.591z M361.336,62.887
			c3.905-3.9,10.254-3.903,14.152-0.005c3.906,3.906,3.909,10.238,0.001,14.146l-30.457,30.45
			c-3.606-6.573-6.432-13.198-8.456-19.823L361.336,62.887z M37.073,489.064c-3.902,3.902-10.221,3.916-14.138,0
			c-3.894-3.895-3.924-10.211,0.008-14.146l142.008-142.341c1.717,2.103,3.54,4.131,5.474,6.064c2.81,2.816,5.814,5.404,8.984,7.755
			L37.073,489.064z M269.421,324.507c-23.819,23.819-61.674,23.216-84.847,0.001c-23.646-23.652-23.273-61.575,0-84.849
			l69.614-69.622c3.514,5.75,7.305,11.408,11.353,16.94l-66.833,66.824c-15.582,15.596-15.582,40.97,0.003,56.568
			c15.597,15.596,40.974,15.596,56.571,0l66.994-66.993c5.544,3.983,11.245,7.728,17.068,11.216L269.421,324.507z M278.057,202.745
			c4.311,5.008,8.85,9.903,13.573,14.626c4.719,4.719,9.679,9.248,14.784,13.584l-65.273,65.272
			c-7.799,7.801-20.489,7.798-28.285,0.003c-7.794-7.8-7.794-20.492-0.003-28.29L278.057,202.745z M459.51,265.785
			c-56.183,4.114-113.266-22.08-153.738-62.557c-15.165-15.162-28.78-32.782-39.275-51.8c-0.299-1.502-27.33-43.655-23.281-98.939
			c1.408-19.303,18.174-33.808,37.497-32.394c19.28,1.411,33.802,18.182,32.386,37.492c-2.625,35.708,16.49,70.326,42.221,96.094
			c25.773,25.773,63.252,44.807,99.092,42.221c19.316-1.415,36.086,13.068,37.495,32.384
			C493.314,247.602,478.829,264.376,459.51,265.785z"/>
	</g>
</g>
<g>
	<g>
		<path d="M384.328,210.87c-18.362-8.842-35.278-20.931-50.277-35.931c-3.905-3.904-10.237-3.904-14.143,0
			c-3.905,3.905-3.905,10.237,0,14.143c16.595,16.595,35.35,29.988,55.742,39.808c4.965,2.392,10.948,0.314,13.349-4.671
			C391.395,219.242,389.304,213.266,384.328,210.87z"/>
	</g>
</g>
<g>
</g>
<g>
</g>
<g>
</g>
<g>
</g>
<g>
</g>
<g>
</g>
<g>
</g>
<g>
</g>
<g>
</g>
<g>
</g>
<g>
</g>
<g>
</g>
<g>
</g>
<g>
</g>
<g>
</g>
</svg>
