<?xml version="1.0" encoding="iso-8859-1"?>
<!-- Generator: Adobe Illustrator 19.0.0, SVG Export Plug-In . SVG Version: 6.00 Build 0)  -->
<svg version="1.1" id="Capa_1" xmlns="http://www.w3.org/2000/svg" xmlns:xlink="http://www.w3.org/1999/xlink" x="0px" y="0px"
	 viewBox="0 0 512.001 512.001" style="enable-background:new 0 0 512.001 512.001;" xml:space="preserve">
<g>
	<g>
		<path d="M196.022,389.044c-5.518,0-9.996,4.478-9.996,9.997c0,5.518,4.478,9.996,9.996,9.996c5.518,0,9.997-4.478,9.997-9.996
			C206.018,393.523,201.54,389.044,196.022,389.044z"/>
	</g>
</g>
<g>
	<g>
		<path d="M461.931,193.749c-8.525-17.04-25.656-27.626-44.707-27.626h-39.329c17.672-46.26,27.813-100.478,28.052-151.051
			c0.018-3.723-2.034-7.145-5.326-8.886c-20.264-10.707-43.025-7.374-60.889,8.91c-14.343,13.079-32.165,13.079-46.507,0
			c-21.966-20.032-51.483-20.032-73.451,0c-14.343,13.08-32.164,13.081-46.506,0C155.236-1.351,131.44-4.509,111.17,6.856
			c-3.174,1.779-5.13,5.143-5.107,8.781c0.311,50.386,10.452,104.4,28.053,150.485H94.777c-19.051,0-36.181,10.586-44.708,27.629
			C2.641,290.676,0.091,290.561,0.091,296.077v165.942c0,27.56,22.422,49.982,49.982,49.982h411.855
			c27.56,0,49.982-22.422,49.982-49.982V296.077C511.911,290.48,509.12,290.185,461.931,193.749z M126.15,21.902
			c11.409-4.135,23.414-1.367,33.646,7.966c21.967,20.035,51.484,20.033,73.451,0c14.344-13.079,32.166-13.078,46.507,0
			c21.967,20.035,51.485,20.034,73.45,0.001c9.906-9.03,21.545-11.92,32.662-8.308c-1.135,51.056-12.589,105.359-31.743,150.021
			c-9.318,21.752-20.22,40.486-31.689,54.518h-17.192c14.683-24.958,29.829-57.103,40.562-86.545
			c1.891-5.186-0.781-10.925-5.969-12.815c-5.186-1.89-10.924,0.781-12.815,5.969c-11.901,32.645-29.355,68.615-45.218,93.392
			h-15.805v-89.968c0-5.52-4.476-9.996-9.996-9.996c-5.52,0-9.996,4.476-9.996,9.996v89.968h-15.807
			c-15.863-24.77-33.308-60.74-45.194-93.388c-1.889-5.188-7.626-7.862-12.813-5.974c-5.187,1.888-7.862,7.625-5.974,12.813
			c10.719,29.447,25.857,61.591,40.541,86.549h-17.19c-11.458-14.021-22.357-32.753-31.681-54.521
			C138.785,127.028,127.33,72.838,126.15,21.902z M67.951,202.695c5.115-10.226,15.395-16.579,26.827-16.579h47.682
			c6.762,14.868,14.256,28.373,22.192,39.986h-28.609c-5.52,0-9.997,4.476-9.997,9.996s4.476,9.997,9.997,9.997
			c50.68,0,189.396,0,239.916,0c5.52,0,9.996-4.476,9.996-9.997s-4.476-9.996-9.996-9.996h-28.606
			c7.941-11.618,15.439-25.124,22.198-39.986h47.673c11.432,0,21.711,6.352,26.826,16.576l41.69,83.389H26.261L67.951,202.695z
			 M491.918,462.019c0,16.536-13.453,29.989-29.989,29.989H50.073c-16.536,0-29.989-13.453-29.989-29.989V306.073h471.834V462.019z"
			/>
	</g>
</g>
<g>
	<g>
		<path d="M355.965,349.058h-199.93c-5.52,0-9.997,4.476-9.997,9.997v79.972c0,5.52,4.476,9.997,9.997,9.997h199.93
			c5.52,0,9.997-4.476,9.997-9.997v-79.972C365.962,353.535,361.486,349.058,355.965,349.058z M345.969,429.03H166.032v-59.979
			h179.937V429.03z"/>
	</g>
</g>
<g>
	<g>
		<path d="M315.979,389.044h-79.972c-5.52,0-9.996,4.476-9.996,9.997c0,5.52,4.476,9.996,9.996,9.996h79.972
			c5.52,0,9.996-4.476,9.996-9.996C325.976,393.521,321.5,389.044,315.979,389.044z"/>
	</g>
</g>
<g>
</g>
<g>
</g>
<g>
</g>
<g>
</g>
<g>
</g>
<g>
</g>
<g>
</g>
<g>
</g>
<g>
</g>
<g>
</g>
<g>
</g>
<g>
</g>
<g>
</g>
<g>
</g>
<g>
</g>
</svg>
