<?xml version="1.0" encoding="iso-8859-1"?>
<!-- Generator: Adobe Illustrator 19.0.0, SVG Export Plug-In . SVG Version: 6.00 Build 0)  -->
<svg version="1.1" id="Capa_1" xmlns="http://www.w3.org/2000/svg" xmlns:xlink="http://www.w3.org/1999/xlink" x="0px" y="0px"
	 viewBox="0 0 512 512" style="enable-background:new 0 0 512 512;" xml:space="preserve">
<g>
	<g>
		<path d="M256,326c-5.52,0-10,4.48-10,10c0,5.52,4.48,10,10,10s10-4.48,10-10C266,330.48,261.52,326,256,326z"/>
	</g>
</g>
<g>
	<g>
		<path d="M512,276c0-15.185-11.343-27.763-26-29.725V230C486,102.902,383.146,0,256,0C128.885,0,26,102.875,26,230v16.271
			C11.365,248.211,0,260.735,0,276c0,15.262,11.459,27.89,26.224,29.754c-1.544,35.82,4.986,72.118,19.08,105.622
			c15.194,36.119,38.414,67.359,67.152,90.345C120.748,508.35,131.581,512,142.96,512c27.699,0,197.485,0,226.08,0
			c11.379,0,22.212-3.65,30.505-10.28c28.736-22.979,51.957-54.218,67.151-90.34c14.093-33.505,20.624-69.803,19.08-105.623
			C500.404,303.929,512,291.456,512,276z M46,230c0-115.794,94.206-210,210-210c116.044,0,210,93.912,210,210v16h-20v-16
			c0-104.767-85.233-190-190-190S66,125.233,66,230v16H46V230z M196,206c5.522,0,10-4.478,10-10v-9.006
			c14.563,2.932,27.055,12.179,34.099,25.417c-9.404,11.103-17.395,22.538-23.468,33.588h-69.626V246
			c-0.663-3.272-1.005-6.615-1.005-10c0-24.146,17.205-44.348,40-48.994V196C186,201.522,190.478,206,196,206z M256.165,224.395
			c0.301-0.126,0.593-0.265,0.875-0.417l35.477,11.829c5.227,1.746,10.9-1.075,12.649-6.323c1.747-5.239-1.084-10.902-6.323-12.649
			l-27.032-9.013c6.006-5.79,12.185-11.143,18.448-15.998l34.691,11.555c5.237,1.746,10.903-1.086,12.647-6.327
			c1.745-5.24-1.088-10.902-6.327-12.647l-20.13-6.705c22.437-12.853,37.786-13.688,42.319-9.156
			c7.999,7.999-1.784,40.97-35.344,77.459h-78.19C244.563,238.831,250.033,231.552,256.165,224.395z M369.935,203.906
			c8.764-21.657,7.935-39.239-2.333-49.508c-15.8-15.8-48.413-8.818-85.108,18.217c-0.045,0.033-0.09,0.068-0.135,0.101
			c-0.021,0.016-0.043,0.032-0.064,0.048c-9.523,7.024-18.884,15.113-27.826,24.054c-0.087,0.087-0.171,0.178-0.257,0.264
			c-10.474-15.751-26.865-26.553-45.618-29.941c2.792-9.029,7.756-17.348,14.478-24.071c3.905-3.905,3.905-10.237,0-14.143
			c-3.906-3.904-10.236-3.904-14.143,0c-10.304,10.304-17.53,23.402-20.854,37.532C153.197,170.411,126,200.083,126,236
			c0,3.366,0.251,6.703,0.723,10H86v-16c0-93.738,76.262-170,170-170s170,76.262,170,170v16h-81.597
			C355.68,231.789,364.518,217.292,369.935,203.906z M142.96,492c-6.857,0-13.256-2.096-18.014-5.899
			C73.423,444.891,43.148,375.017,46.258,306h80.118c2.687,72.679,19.773,141.214,45.994,186H142.96z M266,492V376
			c0-5.522-4.478-10-10-10c-5.522,0-10,4.478-10,10v116h-49.989c-27.704-40.335-46.715-111.843-49.615-186.1h219.208
			c-2.9,74.257-21.911,145.765-49.615,186.1H266z M387.056,486.1c-4.76,3.805-11.158,5.9-18.016,5.9h-29.411
			c26.221-44.786,43.307-113.321,45.994-186h80.119C468.854,375.025,438.579,444.899,387.056,486.1z M482,286H30
			c-5.514,0-10-4.486-10-10c0-5.519,4.479-10,10-10c27.594,0,447.597,0,452,0c5.514,0,10,4.486,10,10
			C492,281.519,487.521,286,482,286z"/>
	</g>
</g>
<g>
</g>
<g>
</g>
<g>
</g>
<g>
</g>
<g>
</g>
<g>
</g>
<g>
</g>
<g>
</g>
<g>
</g>
<g>
</g>
<g>
</g>
<g>
</g>
<g>
</g>
<g>
</g>
<g>
</g>
</svg>
