<?xml version="1.0" encoding="iso-8859-1"?>
<!-- Generator: Adobe Illustrator 19.0.0, SVG Export Plug-In . SVG Version: 6.00 Build 0)  -->
<svg version="1.1" id="Capa_1" xmlns="http://www.w3.org/2000/svg" xmlns:xlink="http://www.w3.org/1999/xlink" x="0px" y="0px"
	 viewBox="0 0 512 512" style="enable-background:new 0 0 512 512;" xml:space="preserve">
<g>
	<g>
		<path d="M379,326c-5.52,0-10,4.48-10,10c0,5.52,4.48,10,10,10c5.52,0,10-4.48,10-10C389,330.48,384.52,326,379,326z"/>
	</g>
</g>
<g>
	<g>
		<path d="M93,326c-5.52,0-10,4.48-10,10c0,5.52,4.48,10,10,10s10-4.48,10-10C103,330.48,98.52,326,93,326z"/>
	</g>
</g>
<g>
	<g>
		<path d="M220.724,197.076L206,167.638V130c0-16.542-13.458-30-30-30c-7.438,0-13.483,0-24.802,0L132.806,8.039
			C131.871,3.364,127.767,0,123,0h-20c-4.767,0-8.871,3.364-9.806,8.039L74.802,100c-7.224,0-13.602,0-24.802,0
			c-16.542,0-30,13.458-30,30v37.638L5.263,197.104C1.787,204.107,0,211.825,0,219.44V482c0,16.542,13.458,30,30,30h166
			c16.542,0,30-13.458,30-30V219.44C226,211.647,224.132,203.945,220.724,197.076z M163,120h13c5.514,0,10,4.486,10,10v30h-23V120z
			 M142.945,120c0.015,0,0.03,0.002,0.045,0.002c0.004,0,0.007,0,0.011,0V160h-20v-40H142.945z M111.198,20h3.604l16,80
			c-12.452,0-23.152,0-35.604,0L111.198,20z M83,120h0.005c0.03,0,0.061,0,0.091,0H103v40H83V120z M40,130c0-5.514,4.486-10,10-10
			h13v40H40V130z M36.18,180c16.539,0,137.099,0,153.64,0l10.003,20H26.177L36.18,180z M206,482c0,5.514-4.486,10-10,10H30
			c-5.514,0-10-4.486-10-10v-10h186V482z M206,452H20V220h186V452z"/>
	</g>
</g>
<g>
	<g>
		<path d="M176,266H50c-5.523,0-10,4.478-10,10v120c0,5.522,4.477,10,10,10h126c5.523,0,10-4.478,10-10V276
			C186,270.478,181.523,266,176,266z M166,326h-33c-5.523,0-10,4.478-10,10c0,5.522,4.477,10,10,10h33v40H60V286h106V326z"/>
	</g>
</g>
<g>
	<g>
		<path d="M506.738,197.104c-0.113-0.228-0.235-0.451-0.365-0.67L489,167.249V130c0-16.542-13.458-30-30-30
			c-5.75,0-17.938,0-22.039,0L415.745,7.759C414.701,3.218,410.659,0,406,0h-20c-4.876,0-9.041,3.517-9.858,8.324L360.557,100
			c-6.232,0-11.737,0-21.557,0c-16.542,0-30,13.458-30,30v37.249l-17.373,29.186c-0.13,0.219-0.252,0.442-0.365,0.67
			c-3.488,7.03-5.262,14.755-5.262,22.335V482c0,16.542,13.458,30,30,30h166c16.542,0,30-13.458,30-30V219.44
			C512,211.695,510.143,203.967,506.738,197.104z M449,120h10c5.514,0,10,4.486,10,10v30h-20V120z M428.991,120.002
			c0.003,0,0.006,0,0.009,0V160h-20v-40h19.945C428.96,120,428.976,120.002,428.991,120.002z M394.443,20h3.596l18.4,80
			c-12.485,0-23.118,0-35.596,0L394.443,20z M369,120h20v40h-20V120z M329,130c0-5.514,4.486-10,10-10h10v40h-20V130z M324.685,180
			c30.004,0,118.138,0,148.63,0l11.905,20H312.78L324.685,180z M492,482c0,5.514-4.486,10-10,10H316c-5.514,0-10-4.486-10-10v-10
			h186V482z M492,452H306V220h186V452z"/>
	</g>
</g>
<g>
	<g>
		<path d="M459,266H339c-5.522,0-10,4.478-10,10v120c0,5.522,4.478,10,10,10h120c5.522,0,10-4.478,10-10V276
			C469,270.478,464.522,266,459,266z M449,326h-30c-5.522,0-10,4.478-10,10c0,5.522,4.478,10,10,10h30v40H349V286h100V326z"/>
	</g>
</g>
<g>
</g>
<g>
</g>
<g>
</g>
<g>
</g>
<g>
</g>
<g>
</g>
<g>
</g>
<g>
</g>
<g>
</g>
<g>
</g>
<g>
</g>
<g>
</g>
<g>
</g>
<g>
</g>
<g>
</g>
</svg>
