<?xml version="1.0" encoding="iso-8859-1"?>
<!-- Generator: Adobe Illustrator 19.0.0, SVG Export Plug-In . SVG Version: 6.00 Build 0)  -->
<svg version="1.1" id="Capa_1" xmlns="http://www.w3.org/2000/svg" xmlns:xlink="http://www.w3.org/1999/xlink" x="0px" y="0px"
	 viewBox="0 0 511.999 511.999" style="enable-background:new 0 0 511.999 511.999;" xml:space="preserve">
<g>
	<g>
		<path d="M395.994,165.993c-5.52,0-10,4.48-10,10s4.48,10,10,10s10-4.48,10-10S401.513,165.993,395.994,165.993z"/>
	</g>
</g>
<g>
	<g>
		<path d="M384.62,203.958c-4.521-3.172-10.757-2.08-13.93,2.438c-20.703,29.489-51.486,49.658-86.678,56.793
			c-5.413,1.098-8.911,6.375-7.814,11.787c1.094,5.396,6.357,8.913,11.788,7.813c40.231-8.156,75.416-31.206,99.074-64.901
			C390.232,213.367,389.14,207.132,384.62,203.958z"/>
	</g>
</g>
<g>
	<g>
		<path d="M465.992,165.993h-14.025c1.342-6.609,2.355-13.287,3.023-19.999h11.002c5.523,0,10-4.478,10-10s-4.477-10-10-10h-10v-10
			c0-27.569-22.429-49.998-49.998-49.998h-89.996v-6C315.997,26.853,289.149,0,255.999,0c-33.083,0-59.998,26.915-59.998,59.998v6
			h-89.996c-27.569,0-49.998,22.429-49.998,49.998v10h-10c-5.523,0-10,4.478-10,10s4.477,10,10,10h11.002
			c0.669,6.712,1.682,13.391,3.024,19.999H46.008v0c-16.541,0-29.999,13.457-29.999,29.999s13.457,29.999,29.999,29.999H82.79
			c17.258,29.868,41.729,54.586,71.377,72.136C76.823,484.147,81.378,472.93,81.059,474.1c-4.348,15.949,5.097,32.47,21.003,36.812
			c15.508,4.32,31.995-4.653,36.688-20.347l33.615-79.684c27.146,9.554,55.388,14.345,83.635,14.345s56.489-4.793,83.635-14.345
			l33.615,79.684c4.764,15.928,21.466,24.609,36.638,20.361c18.212-4.972,26.02-25.096,20.638-38.036l-72.694-174.763
			c29.65-17.551,54.122-42.271,71.378-72.136h36.782c16.541,0,29.999-13.457,29.999-29.999S482.533,165.993,465.992,165.993z
			 M216.001,59.998c0-22.055,17.943-39.998,39.998-39.998c22.09,0,39.998,17.903,39.998,39.998v6h-79.997V59.998z M46.008,205.992
			c-5.514,0-10-4.486-10-10c0-5.514,4.486-10,10-10h19.179c2.134,6.794,4.624,13.475,7.474,19.999H46.008z M119.657,484.599
			c-1.473,5.402-7.078,8.479-12.278,7.034c-5.15-1.406-8.268-6.606-7.152-11.755L171.929,307.5
			c6.229,2.888,12.609,5.452,19.101,7.682C115.454,494.417,119.989,483.381,119.657,484.599z M180.151,392.425l7.791-18.468
			c21.845,7.375,44.692,11.109,68.057,11.109s46.212-3.734,68.057-11.109l7.791,18.468
			C282.57,409.477,229.428,409.477,180.151,392.425z M195.743,355.464l14.644-34.716c14.885,3.473,30.187,5.237,45.612,5.237
			c15.425,0.001,30.728-1.763,45.612-5.236l14.644,34.715c-19.358,6.368-39.578,9.601-60.257,9.601
			C235.321,365.065,215.101,361.832,195.743,355.464z M411.772,479.877c1.115,5.15-2.004,10.35-7.216,11.773
			c-5.083,1.418-10.735-1.625-12.214-7.052c-0.332-1.217,4.245,9.917-71.373-169.417c6.492-2.23,12.872-4.793,19.101-7.682
			L411.772,479.877z M429.693,173.369c-3.571,13.132-8.655,25.861-15.112,37.838c-0.009,0.016-0.017,0.032-0.025,0.048
			c-31.333,58.149-91.904,94.732-158.556,94.732c-83.113,0-152.941-56.299-173.693-132.618c-2.435-8.96-4.166-18.231-5.19-27.476
			h357.765C433.858,155.139,432.128,164.41,429.693,173.369z M435.992,125.995H76.007v-10c0-16.541,13.457-29.999,29.999-29.999
			c33.793,0,270.601,0,299.988,0c16.541,0,29.999,13.457,29.999,29.999V125.995z M465.991,205.992h-26.654
			c2.85-6.525,5.34-13.206,7.474-19.999h19.179c5.515,0,10.001,4.486,10.001,10C475.99,201.506,471.504,205.992,465.991,205.992z"/>
	</g>
</g>
<g>
</g>
<g>
</g>
<g>
</g>
<g>
</g>
<g>
</g>
<g>
</g>
<g>
</g>
<g>
</g>
<g>
</g>
<g>
</g>
<g>
</g>
<g>
</g>
<g>
</g>
<g>
</g>
<g>
</g>
</svg>
