<?xml version="1.0" encoding="iso-8859-1"?>
<!-- Generator: Adobe Illustrator 19.0.0, SVG Export Plug-In . SVG Version: 6.00 Build 0)  -->
<svg version="1.1" id="Capa_1" xmlns="http://www.w3.org/2000/svg" xmlns:xlink="http://www.w3.org/1999/xlink" x="0px" y="0px"
	 viewBox="0 0 512.001 512.001" style="enable-background:new 0 0 512.001 512.001;" xml:space="preserve">
<g>
	<g>
		<path d="M255.969,59.981c-5.52,0-10,4.48-10,10c0,5.52,4.48,10,10,10c5.52,0,10.001-4.48,10.001-10
			C265.97,64.461,261.49,59.981,255.969,59.981z"/>
	</g>
</g>
<g>
	<g>
		<path d="M433.243,256.406c8.817-11.26,26.14-41.902,26.592-51.026c0.171-3.433-1.177-6.61-3.696-8.72
			c-0.004-0.003-0.008-0.007-0.012-0.01c-12.59-10.506-33.394-19.757-54.691-19.652c-1.497-11.445-5.337-28.842-15.075-35.436
			c-4.465-3.023-9.724-3.694-14.805-1.89c-2.059,0.731-15.626,5.738-31.459,15.962c1.548-11.296,2.962-24.265,3.805-36.601
			c3.099-45.34-2.771-57.186-8.23-62.44c-4.008-3.856-9.393-5.219-14.844-3.715c-1.727,0.487-8.753,2.584-18.013,6.854
			c-4.617-16.51-14.586-38.425-36.096-55.944c-6.211-5.051-15.229-5.052-21.445,0.005c-21.494,17.507-31.467,39.428-36.094,55.94
			c-9.259-4.271-16.299-6.372-18.067-6.871c-5.405-1.497-10.816-0.135-14.838,3.732c-5.482,5.271-11.369,17.16-8.192,62.67
			c0.899,12.893,2.326,25.607,3.821,36.402c-16.527-10.644-30.657-15.708-31.47-15.994c-5.076-1.806-10.328-1.137-14.791,1.882
			c-9.731,6.582-13.581,23.992-15.084,35.442c-21.289-0.145-42.106,9.146-54.696,19.66c-2.521,2.109-3.869,5.288-3.699,8.721
			c0.443,8.933,17.391,39.286,26.586,51.029c-8.75,8.354-13.782,15.976-14.449,17.011c-2.515,3.877-3.334,8.495-2.307,13.004
			c1.014,4.447,3.829,8.358,7.725,10.731c23.682,14.422,50.627,19.768,73.431,21.223l-5.879,7.43
			c-3.623,4.563-4.649,10.581-2.746,16.096c1.902,5.511,6.422,9.61,12.087,10.968c19.729,4.733,33.021,13.777,39.506,26.879
			c4.779,9.654,4.107,18.326,4.072,18.731c-0.746,6.896,2.713,13.473,8.833,16.771c6.134,3.305,13.571,2.577,18.947-1.909
			l27.998-23.402V502c0,5.522,4.478,10.001,10,10.001c5.522,0,10.001-4.478,10.001-10.001V389.727
			c30.319,25.29,30.545,27.56,38.952,27.56c4.991,0,9.707-2.173,12.939-5.962c3.104-3.641,4.521-8.396,3.93-13.133
			c-0.94-16.694,10.003-37.265,43.588-45.324c5.661-1.358,10.178-5.458,12.083-10.968c1.904-5.51,0.886-11.523-2.725-16.083
			l-7.373-9.318c7.965-1.166,17.436-2.728,26.557-4.543c41.263-8.213,50.631-16.111,54.354-22.754
			c2.841-5.069,2.635-10.818-0.558-15.757C447.036,272.389,442.001,264.762,433.243,256.406z M389.53,292.438
			c-20.251,4.005-38.895,6.149-41.232,6.307c-3.713,0.064-7.1,2.188-8.77,5.531c-1.732,3.471-1.302,7.63,1.105,10.672l15.551,19.653
			c-38.773,10.948-53.344,37.265-54.382,59.241c-5.852-4.962-16.131-13.882-35.831-30.08v-54.02
			c7.412-6.458,15.093-14.536,23.155-23.022c20.814-21.904,44.402-46.731,66.849-46.731c5.522,0,10-4.478,10-10
			c0-5.522-4.478-10-10-10c-31.031,0-57.764,28.133-81.348,52.954c-2.946,3.1-5.834,6.136-8.656,9.039v-87.676
			c4.598-5.412,9.069-12.574,13.755-20.082c4.548-7.289,9.25-14.826,13.956-20.522c3.518-4.258,2.918-10.561-1.34-14.079
			c-4.257-3.519-10.56-2.918-14.079,1.34c-4.347,5.262-8.391,11.377-12.292,17.548v-48.529c0-5.522-4.478-10-10.001-10
			c-5.522,0-10,4.478-10,10v48.529c-3.9-6.171-7.944-12.286-12.292-17.548c-3.519-4.259-9.821-4.857-14.079-1.34
			c-4.258,3.518-4.857,9.82-1.34,14.079c4.705,5.695,9.407,13.232,13.956,20.522c4.685,7.508,9.156,14.67,13.755,20.082v87.676
			c-2.822-2.903-5.71-5.939-8.656-9.039c-23.584-24.821-50.315-52.954-81.348-52.954c-5.522,0-10,4.478-10,10
			c0,5.522,4.478,10,10,10c22.446,0,46.035,24.826,66.849,46.731c8.063,8.486,15.744,16.565,23.155,23.022v54.128l-35.849,29.963
			c-0.868-14.087-8.071-46.27-54.303-59.234l15.549-19.651c2.41-3.046,2.839-7.211,1.1-10.684c-1.738-3.472-5.34-5.654-9.213-5.518
			c-30.994,0.839-59.347-5.189-80.328-17.032c2.737-3.644,8.446-10.555,16.425-16.663c2.55-1.951,4.007-5.009,3.918-8.219
			c-0.089-3.209-1.714-6.181-4.368-7.987c-6.083-4.142-20.011-28.978-25.091-40.606c11.352-7.416,28.37-13.213,44.199-10.622
			c2.831,0.469,5.718-0.309,7.937-2.119c2.22-1.812,3.557-4.487,3.671-7.351c0.468-11.715,3.608-24.317,6.306-28.783
			c6.491,2.611,26.372,11.397,43.353,27.105c3.228,2.984,8.024,3.514,11.826,1.3c3.799-2.213,5.706-6.647,4.701-10.929
			c-2.003-8.522-5.813-32.559-7.631-57.08c-2.21-29.805-0.214-41.94,1.148-46.493c4.532,1.554,12.744,4.732,21.821,9.982
			c2.854,1.651,6.338,1.789,9.312,0.37c2.975-1.419,5.06-4.213,5.573-7.469c2.474-15.684,9.703-37.789,29.974-55.251
			c20.284,17.476,27.5,39.569,29.962,55.245c0.512,3.256,2.595,6.052,5.569,7.473c2.974,1.418,6.458,1.285,9.313-0.366
			c9.061-5.236,17.255-8.412,21.779-9.967c1.358,4.569,3.342,16.681,1.188,46.285c-1.786,24.558-5.601,48.698-7.616,57.282
			c-1.005,4.281,0.904,8.716,4.704,10.93c3.801,2.211,8.6,1.682,11.827-1.306c17.108-15.844,36.825-24.521,43.342-27.121
			c2.701,4.458,5.844,17.068,6.303,28.785c0.112,2.863,1.447,5.542,3.668,7.354s5.109,2.588,7.939,2.123
			c15.822-2.59,32.85,3.207,44.208,10.622c-5.084,11.631-19.015,36.465-25.099,40.606c-2.654,1.808-4.279,4.78-4.368,7.99
			c-0.089,3.211,1.37,6.269,3.921,8.22c7.44,5.69,12.907,12.081,15.835,15.876C424.373,283.255,414.101,287.577,389.53,292.438z"/>
	</g>
</g>
<g>
</g>
<g>
</g>
<g>
</g>
<g>
</g>
<g>
</g>
<g>
</g>
<g>
</g>
<g>
</g>
<g>
</g>
<g>
</g>
<g>
</g>
<g>
</g>
<g>
</g>
<g>
</g>
<g>
</g>
</svg>
