<?xml version="1.0" encoding="iso-8859-1"?>
<!-- Generator: Adobe Illustrator 19.0.0, SVG Export Plug-In . SVG Version: 6.00 Build 0)  -->
<svg version="1.1" id="Capa_1" xmlns="http://www.w3.org/2000/svg" xmlns:xlink="http://www.w3.org/1999/xlink" x="0px" y="0px"
	 viewBox="0 0 511.999 511.999" style="enable-background:new 0 0 511.999 511.999;" xml:space="preserve">
<g>
	<g>
		<path d="M424.221,59.499c-3.91-3.91-10.24-3.91-14.14,0c-3.91,3.9-3.91,10.23,0,14.14c3.9,3.9,10.23,3.9,14.14,0
			C428.121,69.729,428.121,63.399,424.221,59.499z"/>
	</g>
</g>
<g>
	<g>
		<path d="M268.652,215.059c-3.9-3.9-10.23-3.9-14.14,0c-3.9,3.91-3.9,10.24,0,14.14c3.91,3.909,10.24,3.909,14.14,0
			C272.562,225.299,272.562,218.969,268.652,215.059z"/>
	</g>
</g>
<g>
	<g>
		<path d="M509.07,2.928c-3.907-3.905-10.237-3.903-14.143,0.002l-35.352,35.361l-21.214-21.222
			c-11.697-11.694-30.728-11.695-42.423,0l-28.29,28.291c-2.478,2.478-4.425,5.287-5.852,8.284l-8.284-8.285
			c-3.905-3.903-10.234-3.905-14.142-0.001c-19.397,19.391-28.889,46.143-25.775,73.854c-15.418-11.41-37.635-10.458-52.015,3.926
			c-11.384,11.385-14.447,27.978-9.209,42.176c-4.391,1.41-8.521,3.845-12.001,7.324l-28.279,28.28
			c-2.448,2.448-4.419,5.245-5.87,8.278l-8.278-8.278c-3.906-3.904-10.236-3.904-14.143,0
			c-32.701,32.701-34.914,84.503-6.669,119.808l-24.034,24.034c-10.915-5.225-24.734-3.547-34.148,5.867L8.795,460.786
			c-11.725,11.722-11.728,30.695-0.001,42.42c11.721,11.723,30.696,11.727,42.422,0.001l110.159-110.158
			c9.407-9.407,11.102-23.222,5.869-34.149l24.031-24.031c35.228,28.25,86.931,26.205,119.81-6.671
			c3.905-3.905,3.905-10.237,0-14.143l-8.278-8.278c3.033-1.451,5.83-3.422,8.278-5.87c9.66-9.66,17.628-17.628,28.28-28.28
			c3.473-3.473,5.906-7.596,7.317-11.978c14.055,5.196,30.66,2.293,42.183-9.232c14.361-14.363,15.358-36.572,3.931-52.013
			c27.679,3.11,54.436-6.366,73.848-25.777c1.875-1.876,2.929-4.419,2.929-7.071s-1.054-5.196-2.929-7.071l-8.284-8.284
			c2.996-1.428,5.805-3.374,8.282-5.851l14.055-14.056c0.031-0.03,0.065-0.056,0.096-0.087s0.057-0.065,0.087-0.096l14.053-14.054
			c11.695-11.696,11.695-30.727,0-42.422l-21.21-21.21l35.35-35.359C512.976,13.165,512.975,6.834,509.07,2.928z M147.232,378.906
			L37.073,489.065c-3.909,3.907-10.228,3.906-14.137,0c0-0.001,0-0.001-0.001-0.001c-3.907-3.907-3.909-10.228,0.001-14.137
			l110.158-110.159c3.907-3.907,10.228-3.909,14.139,0.001C151.143,368.677,151.145,374.995,147.232,378.906z M197.944,314.056
			c-24.894-24.893-27.082-64.024-6.567-91.422l97.994,97.995C262.245,341.001,223.121,339.235,197.944,314.056z M325.22,257.487
			l-7.069,7.069l-21.209-21.209c-3.906-3.904-10.236-3.904-14.143,0c-3.905,3.905-3.905,10.237,0,14.143l21.209,21.209l-7.069,7.069
			c-3.907,3.907-10.228,3.909-14.137-0.001l-56.57-56.569c-3.906-3.907-3.908-10.229,0.002-14.137l28.28-28.28
			c3.898-3.898,10.237-3.899,14.139-0.008l56.568,56.568C329.12,247.242,329.12,253.587,325.22,257.487z M374.72,236.278
			c-7.807,7.807-20.471,7.808-28.277-0.001l-70.719-70.719c-7.797-7.796-7.797-20.481,0-28.278
			c7.816-7.816,20.465-7.823,28.287,0.001l70.712,70.712C382.54,215.804,382.54,228.455,374.72,236.278z M353.513,158.487
			c-25.173-25.164-26.967-64.276-6.573-91.418l20.711,20.713l56.569,56.569l20.712,20.711
			C417.734,185.493,378.651,183.629,353.513,158.487z M480.789,87.781c3.897,3.897,3.897,10.24-0.002,14.139l-7.072,7.072
			l-21.214-21.214c-3.906-3.904-10.236-3.904-14.143,0c-3.905,3.905-3.905,10.237,0,14.143l21.215,21.215l-7.073,7.073
			c-3.899,3.897-10.241,3.899-14.139,0l-56.569-56.569c-3.897-3.897-3.897-10.24,0-14.138l28.289-28.29
			c3.898-3.896,10.238-3.9,14.138-0.001C425.782,32.774,467.504,74.496,480.789,87.781z"/>
	</g>
</g>
<g>
</g>
<g>
</g>
<g>
</g>
<g>
</g>
<g>
</g>
<g>
</g>
<g>
</g>
<g>
</g>
<g>
</g>
<g>
</g>
<g>
</g>
<g>
</g>
<g>
</g>
<g>
</g>
<g>
</g>
</svg>
