<?xml version="1.0" encoding="iso-8859-1"?>
<!-- Generator: Adobe Illustrator 19.0.0, SVG Export Plug-In . SVG Version: 6.00 Build 0)  -->
<svg version="1.1" id="Capa_1" xmlns="http://www.w3.org/2000/svg" xmlns:xlink="http://www.w3.org/1999/xlink" x="0px" y="0px"
	 viewBox="0 0 512 512" style="enable-background:new 0 0 512 512;" xml:space="preserve">
<g>
	<g>
		<path d="M253.305,187.997c-3.91-3.91-10.239-3.91-14.139,0c-3.91,3.9-3.91,10.239,0,14.139c3.9,3.91,10.229,3.91,14.139,0
			C257.215,198.237,257.215,191.897,253.305,187.997z"/>
	</g>
</g>
<g>
	<g>
		<path d="M509.558,60.627c-5.583-13.021-13.481-24.692-23.481-34.703c-10.003-9.993-21.676-17.892-34.699-23.477
			c-11.343-4.856-24.304-2.357-33.025,6.362l-25.777,25.777c-3.905,3.905-3.905,10.234-0.001,14.14l-30.957,30.958
			c-2.212,2.212-5.746,2.948-9.457,1.972c-28.878-7.622-60.014-3.1-85.42,12.406c-9.931,6.07-15.009,17.584-13.136,29.355
			c-5.424,1.246-10.404,3.981-14.437,8.013L182.6,187.995c-3.71,3.711-6.32,8.224-7.685,13.146
			c-9.659-2.111-20.17,0.571-27.675,8.065l-14.136,14.146c-5.424,5.424-8.326,12.425-8.719,19.541
			c-7.391,0.398-14.284,3.464-19.559,8.737L90.686,265.77c-5.276,5.276-8.34,12.171-8.738,19.567
			c-7.119,0.392-14.124,3.297-19.551,8.721l-47.725,47.726c-19.548,19.535-19.556,51.169-0.002,70.709l84.842,84.843
			c19.536,19.548,51.17,19.555,70.71,0.002l47.726-47.727c5.272-5.272,8.336-12.161,8.737-19.551
			c7.39-0.401,14.28-3.466,19.552-8.737l14.139-14.139c5.428-5.428,8.331-12.435,8.721-19.556c7.12-0.39,14.128-3.294,19.554-8.719
			l14.157-14.146c7.489-7.5,10.17-18.009,8.058-27.667c4.922-1.366,9.434-3.976,13.145-7.685l56.564-56.566
			c4.034-4.033,6.769-9.013,8.014-14.438c11.678,1.859,23.246-3.129,29.359-13.142c15.502-25.401,20.023-56.534,12.403-85.413
			c-0.979-3.711-0.242-7.247,1.971-9.458l30.958-30.957c3.903,3.904,10.233,3.904,14.14-0.001l25.777-25.777
			C512.111,84.745,514.281,71.632,509.558,60.627z M203.807,435.468l-47.729,47.73c-11.719,11.727-30.696,11.733-42.423-0.003
			l-84.846-84.847c-11.727-11.72-11.734-30.694,0.002-42.422l47.727-47.727c3.902-3.902,10.246-3.901,14.146,0l113.122,113.122
			C207.715,425.229,207.716,431.561,203.807,435.468z M246.235,393.041l-14.139,14.139c-3.902,3.902-10.23,3.916-14.146,0
			L104.827,294.058c-3.907-3.908-3.908-10.238,0-14.146l14.139-14.139c3.908-3.908,10.228-3.908,14.137,0l113.132,113.132
			C250.132,382.802,250.132,389.144,246.235,393.041z M288.665,350.622l-14.152,14.142c-3.897,3.899-10.241,3.897-14.137,0
			L147.243,251.632c-3.898-3.897-3.898-10.239,0.002-14.14l14.131-14.142c3.905-3.901,10.253-3.904,14.151-0.005l113.133,113.133
			C292.56,340.375,292.557,346.724,288.665,350.622z M366.436,258.7l-56.565,56.566c-3.9,3.9-10.212,3.912-14.127,0.01
			l-99.004-99.003c-3.907-3.908-3.907-10.228,0-14.136l56.567-56.566c3.908-3.906,10.227-3.907,14.136,0.001l98.994,98.993
			C370.343,248.472,370.344,254.792,366.436,258.7z M418.183,136.249c-7.3,7.302-9.979,18.03-7.167,28.7
			c6.238,23.643,2.543,49.118-10.137,69.894c-3.102,5.085-10.747,5.132-14.992,0.889c-16.68-16.68-94.394-94.394-109.613-109.613
			c-4.246-4.246-4.188-11.888,0.889-14.991c20.778-12.68,46.255-16.374,69.896-10.136c10.672,2.812,21.398,0.133,28.699-7.167
			l30.956-30.957l42.425,42.425L418.183,136.249z M489.058,79.514L470.351,98.22l-56.563-56.563l18.707-18.707
			c2.906-2.908,7.229-3.736,11.007-2.121c10.673,4.578,20.243,11.052,28.435,19.236c8.19,8.198,14.665,17.769,19.244,28.443
			C492.768,72.209,492.004,76.568,489.058,79.514z"/>
	</g>
</g>
<g>
	<g>
		<path d="M324.012,258.7l-42.428-42.427c-3.906-3.904-10.235-3.904-14.142,0c-3.905,3.905-3.905,10.236,0,14.142l42.428,42.427
			c3.907,3.905,10.235,3.904,14.142,0C327.917,268.938,327.917,262.606,324.012,258.7z"/>
	</g>
</g>
<g>
</g>
<g>
</g>
<g>
</g>
<g>
</g>
<g>
</g>
<g>
</g>
<g>
</g>
<g>
</g>
<g>
</g>
<g>
</g>
<g>
</g>
<g>
</g>
<g>
</g>
<g>
</g>
<g>
</g>
</svg>
