<?xml version="1.0" encoding="iso-8859-1"?>
<!-- Generator: Adobe Illustrator 19.0.0, SVG Export Plug-In . SVG Version: 6.00 Build 0)  -->
<svg version="1.1" id="Capa_1" xmlns="http://www.w3.org/2000/svg" xmlns:xlink="http://www.w3.org/1999/xlink" x="0px" y="0px"
	 viewBox="0 0 512 512" style="enable-background:new 0 0 512 512;" xml:space="preserve">
<g>
	<g>
		<path d="M156,120c-5.52,0-10,4.48-10,10s4.48,10,10,10s10-4.48,10-10S161.52,120,156,120z"/>
	</g>
</g>
<g>
	<g>
		<path d="M396,80c5.523,0,10-4.478,10-10c0-5.522-4.477-10-10-10c-9.506,0-39.191,0-52.574,0C345.059,52.127,346,44.993,346,40
			c0-22.056-17.944-40-40-40c-22.056,0-40,17.944-40,40c0,4.993,0.941,12.127,2.574,20c-23.08,0-129.33,0-152.574,0
			c-5.523,0-10,4.478-10,10c0,5.522,4.477,9.9,10,9.9h6.126c-14.573,44.936-16.1,46.451-16.123,50.036
			c0,0.021-0.003,0.042-0.003,0.064v332c0,3.895,1.234,4.21,9.997,22.364C124.526,501.411,141.663,512,160.72,512h190.56
			c19.057,0,36.194-10.589,44.726-27.641C405.174,465.99,406,465.36,406,462V130c0-3.741-1.73-5.383-16.126-50H396z M306,20
			c11.028,0,20,8.972,20,20c0,3.657-0.971,11.03-3.053,20h-33.893C286.971,51.03,286,43.657,286,40C286,28.972,294.972,20,306,20z
			 M126,266h40v60h-40V266z M378.117,475.415C372.999,485.645,362.715,492,351.28,492H160.72c-11.435,0-21.719-6.355-26.835-16.58
			l-1.709-3.42h247.647L378.117,475.415z M386,452H126V346h40.559c4.991,44.937,43.196,80,89.441,80s84.451-35.063,89.441-80H386
			V452z M186,336v-80c0-38.598,31.402-70,70-70c38.612,0,70,31.246,70,70v80c0,38.598-31.402,70-70,70
			C217.402,406,186,374.598,186,336z M386,326h-40v-60h40V326z M386,246h-40.566c-4.937-44.903-42.956-80-89.434-80
			c-46.246,0-84.451,35.063-89.441,80H126V131.623L143.208,80c34.572,0,190.189,0,225.585,0l13.333,40H196c-5.523,0-10,4.478-10,10
			c0,5.522,4.477,10,10,10h190V246z"/>
	</g>
</g>
<g>
	<g>
		<path d="M256,246c-27.57,0-50,22.43-50,50s22.43,50,50,50s50-22.43,50-50S283.57,246,256,246z M256,326c-16.542,0-30-13.458-30-30
			s13.458-30,30-30s30,13.458,30,30S272.542,326,256,326z"/>
	</g>
</g>
<g>
</g>
<g>
</g>
<g>
</g>
<g>
</g>
<g>
</g>
<g>
</g>
<g>
</g>
<g>
</g>
<g>
</g>
<g>
</g>
<g>
</g>
<g>
</g>
<g>
</g>
<g>
</g>
<g>
</g>
</svg>
