<?xml version="1.0" encoding="iso-8859-1"?>
<!-- Generator: Adobe Illustrator 19.0.0, SVG Export Plug-In . SVG Version: 6.00 Build 0)  -->
<svg version="1.1" id="Capa_1" xmlns="http://www.w3.org/2000/svg" xmlns:xlink="http://www.w3.org/1999/xlink" x="0px" y="0px"
	 viewBox="0 0 512.001 512.001" style="enable-background:new 0 0 512.001 512.001;" xml:space="preserve">
<g>
	<g>
		<path d="M192.618,432.472c-3.899-3.899-10.238-3.899-14.137,0c-3.909,3.909-3.909,10.238,0,14.147
			c3.899,3.899,10.238,3.899,14.137,0C196.527,442.71,196.527,436.381,192.618,432.472z"/>
	</g>
</g>
<g>
	<g>
		<path d="M79.502,319.366c-3.899-3.909-10.228-3.909-14.137,0c-3.899,3.899-3.899,10.228,0,14.137
			c3.909,3.899,10.238,3.899,14.137,0C83.411,329.594,83.411,323.265,79.502,319.366z"/>
	</g>
</g>
<g>
	<g>
		<g>
			<path d="M494.892,73.623l8.28-8.282c11.722-11.719,11.724-30.69,0.001-42.413L489.036,8.791
				c-11.719-11.719-30.688-11.724-42.412-0.002l-8.284,8.283l-14.139-14.14c-3.905-3.904-10.234-3.904-14.14,0
				c-3.904,3.904-3.904,10.235,0,14.14L424.2,31.211L410.059,45.35l-14.142-14.142c-3.903-3.904-10.232-3.904-14.14,0
				c-3.904,3.904-3.904,10.235,0,14.139l14.141,14.14l-7.07,7.069c-1.877,1.875-2.931,4.418-2.931,7.07
				c0,2.517,0.958,4.929,2.657,6.773L279.223,181.457c-25.1-18.539-57.456-25.692-88.285-19.161
				c-25.659,5.432-46.633,25.278-57.544,54.448c-6.202,16.578-21.412,29.759-40.86,32.067c-42.35,5.057-75.769,30.294-87.215,65.864
				c-15.032,46.746,2.559,102.721,45.909,146.081c38.878,38.878,94.806,62.395,146.07,45.909
				c35.581-11.44,60.819-44.859,65.865-87.214c2.326-19.484,15.522-34.677,32.079-40.862c29.16-10.911,49.005-31.887,54.446-57.551
				c6.534-30.828-0.625-63.187-19.17-88.288l101.047-109.36c4.015,3.701,10.105,3.466,13.842-0.274l7.07-7.07l14.141,14.142
				c3.904,3.904,10.233,3.905,14.14,0c3.904-3.904,3.904-10.235,0-14.139l-14.143-14.143l14.138-14.141l14.14,14.139
				c3.905,3.904,10.234,3.904,14.14,0c3.904-3.904,3.904-10.235,0-14.14L494.892,73.623z M330.128,316.89
				c-3.995,18.84-19.265,34.502-41.887,42.968c-23.183,8.66-41.667,29.891-44.931,57.223c-4.109,34.498-24.085,61.53-52.13,70.548
				c-39.581,12.722-87.789-2.989-125.81-41.012c-38.027-38.032-53.743-86.244-41.016-125.818
				c9.022-28.037,36.056-48.013,70.545-52.132c27.259-3.236,48.531-21.672,57.225-44.917c8.467-22.636,24.124-37.905,42.959-41.892
				c23.978-5.081,49.076-0.05,69.131,13.471l-42.29,39.083c-11.069,1.339-21.36,6.313-29.305,14.258
				c-19.485,19.485-19.486,51.199,0,70.697c19.535,19.535,51.161,19.538,70.698,0c7.945-7.946,12.918-18.241,14.258-29.316
				l39.075-42.29C330.176,267.817,335.209,292.916,330.128,316.89z M249.175,262.81c11.725,11.724,11.683,30.736,0,42.418
				c-11.719,11.719-30.694,11.724-42.417,0.002c-11.693-11.7-11.694-30.729-0.002-42.421
				C218.503,251.061,237.52,251.154,249.175,262.81z M273.958,264.499c-2.482-5.855-6.066-11.252-10.643-15.829
				c-4.58-4.58-9.98-8.163-15.84-10.646L402.71,94.564l14.692,14.692L273.958,264.499z M489.032,51.205
				c-0.009,0.009-0.016,0.016-0.025,0.025c0.012-0.012,0.001-0.001-0.023,0.023c-0.01,0.01-0.019,0.019-0.028,0.028
				c-0.042,0.042-0.102,0.102-0.154,0.154c0.025-0.025,0.054-0.054,0.089-0.089c-0.965,0.965-8.486,8.487-50.552,50.557
				l-0.001-0.001c-17.091-17.091-10.284-10.284-28.276-28.276c10.864-10.863,39.131-39.127,50.7-50.695
				c3.906-3.907,10.227-3.908,14.135-0.001l14.137,14.138C492.931,40.965,492.953,47.284,489.032,51.205z"/>
			<path d="M488.706,51.531c0.013-0.013,0.03-0.03,0.058-0.058C488.741,51.496,488.72,51.516,488.706,51.531z"/>
		</g>
	</g>
</g>
<g>
	<g>
		<path d="M192.619,375.923l-56.557-56.558c-3.904-3.904-10.235-3.904-14.14,0c-3.904,3.904-3.904,10.235,0,14.139l56.557,56.558
			c3.905,3.904,10.234,3.904,14.14,0C196.523,386.158,196.523,379.827,192.619,375.923z"/>
	</g>
</g>
<g>
	<g>
		<path d="M164.346,404.197l-56.558-56.558c-3.905-3.904-10.234-3.904-14.14,0c-3.904,3.904-3.904,10.235,0,14.14l56.558,56.558
			c3.905,3.904,10.234,3.904,14.14,0C168.25,414.433,168.25,408.102,164.346,404.197z"/>
	</g>
</g>
<g>
</g>
<g>
</g>
<g>
</g>
<g>
</g>
<g>
</g>
<g>
</g>
<g>
</g>
<g>
</g>
<g>
</g>
<g>
</g>
<g>
</g>
<g>
</g>
<g>
</g>
<g>
</g>
<g>
</g>
</svg>
