<?xml version="1.0" encoding="iso-8859-1"?>
<!-- Generator: Adobe Illustrator 19.0.0, SVG Export Plug-In . SVG Version: 6.00 Build 0)  -->
<svg version="1.1" id="Capa_1" xmlns="http://www.w3.org/2000/svg" xmlns:xlink="http://www.w3.org/1999/xlink" x="0px" y="0px"
	 viewBox="0 0 512 512" style="enable-background:new 0 0 512 512;" xml:space="preserve">
<g>
	<g>
		<path d="M336,306c-5.52,0-10,4.48-10,10c0,5.52,4.48,10,10,10c5.52,0,10-4.48,10-10C346,310.48,341.52,306,336,306z"/>
	</g>
</g>
<g>
	<g>
		<path d="M156,306c-5.52,0-10,4.48-10,10c0,5.52,4.48,10,10,10s10-4.48,10-10C166,310.48,161.52,306,156,306z"/>
	</g>
</g>
<g>
	<g>
		<path d="M382,106H130c-16.575,0-30,13.424-30,30c0,16.542,13.458,30,30,30h252c16.575,0,30-13.424,30-30
			C412,119.458,398.542,106,382,106z M382,146H130c-5.514,0-10-4.486-10-10c0-5.522,4.479-10,10-10h252c5.514,0,10,4.486,10,10
			C392,141.522,387.521,146,382,146z"/>
	</g>
</g>
<g>
	<g>
		<path d="M482,186h-10v-30c0-49.626-40.374-90-90-90H130c-49.626,0-90,40.374-90,90v30H30c-16.542,0-30,13.458-30,30v40
			c0,16.542,13.458,30,30,30h10v110c0,27.57,22.43,50,50,50h332c27.57,0,50-22.43,50-50V286h10c16.542,0,30-13.458,30-30v-40
			C512,199.458,498.542,186,482,186z M40,266H30c-5.514,0-10-4.486-10-10v-40c0-5.514,4.486-10,10-10h10V266z M452,396
			c0,16.542-13.458,30-30,30H90c-16.542,0-30-13.458-30-30c0-8.711,0-183.138,0-190h392C452,212.797,452,387.262,452,396z M452,186
			H60v-30c0-38.598,31.401-70,70-70h252c38.599,0,70,31.402,70,70V186z M492,256c0,5.514-4.486,10-10,10h-10v-60h10
			c5.514,0,10,4.486,10,10V256z"/>
	</g>
</g>
<g>
	<g>
		<path d="M312.96,337.34L275.999,316l36.961-21.34c4.783-2.761,6.422-8.877,3.66-13.66c-2.762-4.782-8.878-6.421-13.66-3.66
			L266,298.679V256c0-5.523-4.478-10-10-10c-5.522,0-10,4.477-10,10v42.679l-36.96-21.339c-4.785-2.762-10.898-1.122-13.66,3.66
			c-2.762,4.783-1.123,10.899,3.66,13.66L236.001,316l-36.961,21.34c-4.783,2.761-6.422,8.877-3.66,13.66
			c2.775,4.806,8.9,6.409,13.66,3.66L246,333.321V376c0,5.523,4.478,10,10,10c5.522,0,10-4.477,10-10v-42.679l36.96,21.339
			c4.767,2.751,10.889,1.139,13.66-3.66C319.382,346.217,317.743,340.101,312.96,337.34z"/>
	</g>
</g>
<g>
	<g>
		<path d="M396,306h-20c-5.522,0-10,4.477-10,10s4.478,10,10,10h20c5.522,0,10-4.477,10-10S401.522,306,396,306z"/>
	</g>
</g>
<g>
	<g>
		<path d="M116,306H96c-5.522,0-10,4.477-10,10s4.478,10,10,10h20c5.522,0,10-4.477,10-10S121.522,306,116,306z"/>
	</g>
</g>
<g>
</g>
<g>
</g>
<g>
</g>
<g>
</g>
<g>
</g>
<g>
</g>
<g>
</g>
<g>
</g>
<g>
</g>
<g>
</g>
<g>
</g>
<g>
</g>
<g>
</g>
<g>
</g>
<g>
</g>
</svg>
