<?xml version="1.0" encoding="iso-8859-1"?>
<!-- Generator: Adobe Illustrator 19.0.0, SVG Export Plug-In . SVG Version: 6.00 Build 0)  -->
<svg version="1.1" id="Capa_1" xmlns="http://www.w3.org/2000/svg" xmlns:xlink="http://www.w3.org/1999/xlink" x="0px" y="0px"
	 viewBox="0 0 512.001 512.001" style="enable-background:new 0 0 512.001 512.001;" xml:space="preserve">
<g>
	<g>
		<path d="M509.071,248.929l-245.999-246c-3.905-3.905-10.237-3.905-14.143,0l-246,246c-3.905,3.905-3.905,10.237,0,14.143l246,246
			c1.953,1.952,4.512,2.929,7.071,2.929c2.559,0,5.119-0.977,7.071-2.929l246-246C512.976,259.167,512.976,252.835,509.071,248.929z
			 M256.001,487.858L24.143,256L256.001,24.142L487.859,256L256.001,487.858z"/>
	</g>
</g>
<g>
	<g>
		<path d="M432.78,248.928L263.072,79.219c-3.905-3.905-10.237-3.905-14.142,0L121.651,206.498c0,0,0,0-0.001,0l-42.43,42.43
			c-3.905,3.905-3.905,10.237,0,14.143L248.929,432.78c1.953,1.953,4.512,2.929,7.071,2.929c2.559,0,5.119-0.977,7.071-2.929
			L432.78,263.071C436.685,259.166,436.685,252.834,432.78,248.928z M369.139,213.57l-28.288,28.288l-28.283-28.283l28.288-28.288
			L369.139,213.57z M241.859,256l-28.282,28.282L185.294,256l28.282-28.282L241.859,256z M227.718,213.575l28.283-28.282
			l28.283,28.282l-28.283,28.283L227.718,213.575z M256.001,270.143l28.283,28.283l-28.283,28.282l-28.283-28.283L256.001,270.143z
			 M270.143,256l28.282-28.282L326.709,256l-28.283,28.283L270.143,256z M326.714,171.145l-28.288,28.288l-28.283-28.283
			l28.288-28.288L326.714,171.145z M256.001,100.432l28.288,28.288l-28.288,28.289l-28.288-28.288L256.001,100.432z
			 M213.571,142.863l28.288,28.288l-28.282,28.282l-28.288-28.288L213.571,142.863z M171.146,185.288l28.288,28.288l-28.282,28.282
			l-28.288-28.288L171.146,185.288z M100.433,256l28.288-28.288L157.009,256l-28.288,28.288L100.433,256z M142.863,298.43
			l28.288-28.288l28.283,28.283l-28.288,28.288L142.863,298.43z M185.288,340.855l28.288-28.288l28.283,28.283l-28.288,28.288
			L185.288,340.855z M256.001,411.568l-28.288-28.288l28.288-28.288l28.288,28.288L256.001,411.568z M298.431,369.138
			l-28.288-28.288l28.282-28.282l28.288,28.288L298.431,369.138z M340.856,326.713l-28.288-28.288l28.282-28.282l28.288,28.288
			L340.856,326.713z M383.281,284.288L354.993,256l28.288-28.288L411.569,256L383.281,284.288z"/>
	</g>
</g>
<g>
</g>
<g>
</g>
<g>
</g>
<g>
</g>
<g>
</g>
<g>
</g>
<g>
</g>
<g>
</g>
<g>
</g>
<g>
</g>
<g>
</g>
<g>
</g>
<g>
</g>
<g>
</g>
<g>
</g>
</svg>
