<?xml version="1.0" encoding="iso-8859-1"?>
<!-- Generator: Adobe Illustrator 19.0.0, SVG Export Plug-In . SVG Version: 6.00 Build 0)  -->
<svg version="1.1" id="Capa_1" xmlns="http://www.w3.org/2000/svg" xmlns:xlink="http://www.w3.org/1999/xlink" x="0px" y="0px"
	 viewBox="0 0 512.001 512.001" style="enable-background:new 0 0 512.001 512.001;" xml:space="preserve">
<g>
	<g>
		<path d="M426.541,155c-2.76-4.78-8.87-6.42-13.66-3.66c-4.78,2.76-6.42,8.88-3.66,13.66c2.77,4.78,8.88,6.42,13.66,3.66
			C427.671,165.9,429.311,159.78,426.541,155z"/>
	</g>
</g>
<g>
	<g>
		<path d="M422.881,343.34c-4.78-2.76-10.89-1.12-13.66,3.66c-2.76,4.78-1.12,10.9,3.66,13.66c4.79,2.76,10.9,1.12,13.66-3.66
			C429.311,352.22,427.671,346.1,422.881,343.34z"/>
	</g>
</g>
<g>
	<g>
		<path d="M256.001,60c-5.52,0-10,4.48-10,10s4.48,10,10,10c5.52,0,10-4.48,10-10S261.521,60,256.001,60z"/>
	</g>
</g>
<g>
	<g>
		<path d="M256.001,432c-5.52,0-10,4.48-10,10c0,5.52,4.48,10,10,10c5.52,0,10-4.48,10-10C266.001,436.48,261.521,432,256.001,432z"
			/>
	</g>
</g>
<g>
	<g>
		<path d="M99.121,151.34c-4.79-2.76-10.9-1.12-13.66,3.66c-2.77,4.78-1.13,10.9,3.66,13.66c4.78,2.76,10.89,1.12,13.66-3.66
			C105.541,160.22,103.901,154.1,99.121,151.34z"/>
	</g>
</g>
<g>
	<g>
		<path d="M102.781,347c-2.77-4.78-8.88-6.42-13.66-3.66c-4.79,2.76-6.43,8.88-3.66,13.66c2.76,4.78,8.87,6.42,13.66,3.66
			C103.901,357.9,105.541,351.78,102.781,347z"/>
	</g>
</g>
<g>
	<g>
		<path d="M510.026,250.035c-0.995-1.34-22.861-30.416-56.378-49.77c19.086-33.648,25.72-66.831,26.017-68.351
			c0.98-5.031-2.002-9.989-6.905-11.481c-1.461-0.444-33.289-9.964-71.756-9.52c1.228-38.617-9.024-70.421-9.502-71.88
			c-1.556-4.744-6.373-7.611-11.288-6.722c-1.738,0.316-39.451,7.344-73.307,27.866C288.653,26.053,263.819,3.58,262.672,2.551
			c-3.799-3.401-9.545-3.401-13.344,0c-1.147,1.028-25.982,23.502-44.236,57.625c-33.856-20.522-71.569-27.55-73.306-27.866
			c-4.914-0.889-9.732,1.979-11.288,6.724c-0.507,1.544-11.321,35.13-9.366,75.197c-38.254-1.879-69.893,5.697-71.352,6.053
			c-5.189,1.266-8.467,6.386-7.445,11.628c0.297,1.519,6.924,34.661,25.98,68.289c-33.448,19.052-55.28,47.437-56.275,48.745
			c-2.864,3.766-2.696,9.023,0.401,12.6c1.037,1.197,23.875,27.28,58.499,45.744c-21.073,35.072-28.284,71.144-28.606,72.797
			c-1.03,5.287,2.313,10.44,7.56,11.655c17.135,3.969,45.13,6.782,71.05,5.325c-0.851,38.57,8.972,73.874,9.432,75.502
			c1.395,4.939,6.315,8.043,11.409,7.121c1.766-0.321,40.687-7.574,74.956-28.878c17.957,33.938,41.129,57.207,42.203,58.277
			c1.954,1.941,4.505,2.911,7.057,2.911c2.552,0,5.104-0.971,7.055-2.912c1.072-1.067,24.244-24.338,42.198-58.276
			c29.411,18.29,70.24,29.04,76.755,29.04c4.398,0,8.381-2.913,9.615-7.283c0.461-1.628,10.283-36.932,9.432-75.502
			c4.952,0.279,9.804,0.418,14.482,0.418c31.314,0,55.308-5.451,56.568-5.743c5.248-1.215,8.59-6.368,7.56-11.655
			c-0.323-1.654-7.533-37.718-28.592-72.781c34.54-18.282,57.335-43.471,58.376-44.634
			C512.621,259.131,512.861,253.849,510.026,250.035z M391.006,131.289c27.672-1.781,53.589,2.92,66.805,5.949
			c-3.542,13.094-11.639,38.172-26.58,61.51c-11.651,18.195-25.213,31.838-40.313,40.554c-3.199,1.849-11.72,4.168-16.938,5.785
			c-3.018-0.828-5.963-1.576-8.775-2.258c-1.388-11.531-4.605-22.83-9.505-33.339l32.931-21.066
			c4.652-2.976,6.012-9.16,3.035-13.813c-2.976-4.651-9.159-6.014-13.813-3.035l-32.249,20.629
			c-6.622-9.277-14.688-17.528-23.819-24.357c0.54-2.39,1.042-4.954,1.505-7.68c4.065-4.224,9.241-12.088,11.633-13.468
			C350.181,137.889,369.049,132.704,391.006,131.289z M374.884,54.016c2.84,11.661,7.075,33.675,6.065,58.082
			c-20.924,2.301-39.372,7.906-54.966,16.693c-0.166-16.419-3.7-33.326-10.539-50.383C337.291,64.753,361.996,57.278,374.884,54.016
			z M218.119,78.873c11.542-25.139,28.584-45.025,37.89-54.803c9.296,9.75,26.29,29.574,37.874,54.804
			c8.041,17.508,12.118,34.71,12.118,51.126c0,7.415-0.799,17.231-2.428,26.812c-11.78-5.661-24.48-9.161-37.572-10.344V110
			c0-5.523-4.478-10-10-10c-5.522,0-10,4.477-10,10v36.468c-13.093,1.183-25.794,4.683-37.572,10.343
			c-1.636-9.617-2.428-19.44-2.428-26.811C206.001,113.583,210.078,96.382,218.119,78.873z M256.001,166c49.6,0,90,40.205,90,90
			c0,49.702-40.312,90-90,90c-49.595,0-90-40.194-90-90C166.001,206.363,206.258,166,256.001,166z M137.122,54.007
			c12.875,3.247,37.539,10.701,59.437,24.399c-7.007,17.477-10.558,34.797-10.558,51.594c0,1.213,0.025,2.482,0.061,3.772
			c-15.531-8.771-33.922-14.694-54.789-17.646C129.584,90.12,134.132,66.301,137.122,54.007z M54.351,137.784
			c13.507-2.312,39.256-5.542,66.672-2.765c0.01,0.001,0.019,0.002,0.029,0.003c0.017,0.002,0.034,0.004,0.051,0.006
			c21.89,2.229,40.724,7.824,55.97,16.627c3.909,2.262,8.019,5.751,11.693,8.821c0.448,2.612,0.933,5.072,1.452,7.372
			c-9.134,6.832-17.199,15.083-23.82,24.357l-32.248-20.629c-4.653-2.978-10.838-1.617-13.813,3.035
			c-2.977,4.652-1.617,10.836,3.035,13.813l32.931,21.066c-4.904,10.518-8.122,21.822-9.507,33.344
			c-3.819,0.926-7.815,1.957-11.85,3.124c-4.884-1.936-9.547-4.159-13.866-6.658c-15.111-8.723-28.676-22.369-40.316-40.56
			C66.085,175.804,57.985,151.043,54.351,137.784z M23.418,254.573c8.028-9.013,24.402-25.561,45.624-37.463
			c11.981,16.815,25.747,29.862,41.005,38.889c-13.932,8.246-26.633,19.861-37.848,34.618
			C49.643,278.934,32.053,263.132,23.418,254.573z M54.384,374.098c3.877-14.111,12.768-41.063,29.184-65.066
			c10.986-16.08,23.608-28.304,37.517-36.333c3.641-2.104,8.714-4.196,15.077-6.219c3.34-1.062,6.75-2.017,10.106-2.892
			c0.932,13.506,4.348,26.713,10.043,38.918l-32.938,21.07c-4.652,2.976-6.012,9.16-3.035,13.813
			c2.98,4.66,9.167,6.007,13.813,3.035l32.249-20.629c6.601,9.247,14.636,17.474,23.731,24.29c-0.643,2.539-1.222,5.074-1.714,7.599
			C152.711,379.082,98.456,381.113,54.384,374.098z M137.398,457.914c-2.834-12.893-7.257-37.572-6.384-62.84
			c20.954-3.068,39.418-9.064,55.007-17.863c0.178,17.656,4.252,36.238,12.137,55.362
			C176.084,446.774,150.682,454.534,137.398,457.914z M293.389,429.518c-1.197,1.433-1.906,3.042-2.19,4.758
			c-11.306,23.583-26.454,42.81-35.205,52.915c-9.052-10.441-24.94-30.64-36.393-55.458c-9.024-19.573-13.6-38.324-13.6-55.733
			c0-7.31,0.798-14.27,2.129-20.956c11.864,5.746,24.668,9.295,37.871,10.488V402c0,5.523,4.478,10,10,10c5.522,0,10-4.477,10-10
			v-36.468c13.204-1.193,26.009-4.743,37.871-10.488C309.028,380.941,304.295,405.042,293.389,429.518z M374.604,457.925
			c-13.269-3.365-38.637-11.1-60.761-25.346c7.888-19.121,11.961-37.704,12.139-55.367c15.592,8.799,34.055,14.795,55.007,17.862
			C381.863,420.351,377.436,445.037,374.604,457.925z M457.621,374.107c-13.409,2.142-38.722,5.033-65.905,2.166
			c-0.016-0.002-0.031-0.003-0.047-0.005c-0.041-0.004-0.082-0.008-0.123-0.012c-24.647-2.614-48.38-9.547-67.959-24.572
			c-0.492-2.524-1.071-5.06-1.714-7.599c9.098-6.819,17.133-15.046,23.732-24.29l32.248,20.629c1.669,1.068,3.535,1.578,5.379,1.578
			c3.297,0,6.525-1.629,8.434-4.613c2.977-4.652,1.617-10.836-3.035-13.813l-32.939-21.07c5.696-12.208,9.112-25.416,10.043-38.921
			c7.679,2.004,18.264,5.118,25.185,9.115c13.866,8.008,26.467,20.198,37.451,36.231C444.83,332.961,453.74,359.98,457.621,374.107z
			 M439.815,290.627c-11.228-14.766-23.934-26.383-37.86-34.628c15.235-9.015,28.984-22.043,40.962-38.836
			c21.18,12.074,37.611,29.039,45.644,38.243C479.89,263.748,462.381,279.025,439.815,290.627z"/>
	</g>
</g>
<g>
	<g>
		<path d="M316.001,246h-10v-30c0-5.523-4.478-10-10-10h-30v-10c0-5.523-4.478-10-10-10c-5.522,0-10,4.477-10,10v10h-30
			c-5.522,0-10,4.477-10,10v30h-10c-5.522,0-10,4.477-10,10c0,5.523,4.478,10,10,10h10v30c0,5.523,4.478,10,10,10h30v10
			c0,5.523,4.478,10,10,10c5.522,0,10-4.477,10-10v-10h30c5.522,0,10-4.477,10-10v-30h10c5.522,0,10-4.477,10-10
			C326.001,250.477,321.524,246,316.001,246z M246.001,286h-20v-20h20V286z M246.001,246h-20v-20h20V246z M286.001,286h-20v-20h20
			V286z M286.001,246h-20v-20h20V246z"/>
	</g>
</g>
<g>
</g>
<g>
</g>
<g>
</g>
<g>
</g>
<g>
</g>
<g>
</g>
<g>
</g>
<g>
</g>
<g>
</g>
<g>
</g>
<g>
</g>
<g>
</g>
<g>
</g>
<g>
</g>
<g>
</g>
</svg>
