<?xml version="1.0" encoding="iso-8859-1"?>
<!-- Generator: Adobe Illustrator 19.0.0, SVG Export Plug-In . SVG Version: 6.00 Build 0)  -->
<svg version="1.1" id="Capa_1" xmlns="http://www.w3.org/2000/svg" xmlns:xlink="http://www.w3.org/1999/xlink" x="0px" y="0px"
	 viewBox="0 0 512 512" style="enable-background:new 0 0 512 512;" xml:space="preserve">
<g>
	<g>
		<path d="M213,76c-5.52,0-10,4.48-10,10s4.48,10,10,10s10-4.48,10-10S218.52,76,213,76z"/>
	</g>
</g>
<g>
	<g>
		<path d="M327.546,75.906C291.094,50.172,243.311,36,193,36c-50.311,0-98.094,14.172-134.546,39.906
			C20.759,102.516,0,138.064,0,176c0,43.909,19.801,72.067,44.476,84.059c28.699,13.95,62.841,4.887,72.939-24.033
			c19.414,40.96,12.63,95.296,3.491,148.274c-0.501,2.906,0.306,5.886,2.206,8.142c1.9,2.256,4.699,3.558,7.648,3.558h124.48
			c6.203,0,10.908-5.596,9.854-11.699c-10.021-58.107-21.534-106.365,3.087-149.837c9.577,30.108,44.596,39.983,73.733,25.822
			C355.17,253.844,386,232.734,386,176C386,138.064,365.241,102.516,327.546,75.906z M333.172,242.298
			c-25.088,12.192-53.626-0.855-46.259-34.818c0.959-4.423-1.172-8.939-5.196-11.01c-4.023-2.071-8.937-1.182-11.98,2.167
			c-48.11,52.974-38.569,108.295-26.398,177.363H142.581c4.734-29.035,8.406-59.223,6.914-87.584
			c-1.999-37.99-12.869-67.357-33.232-89.779c-3.042-3.35-7.955-4.238-11.98-2.168c-4.024,2.072-6.155,6.587-5.196,11.01
			c7.531,34.733-21.304,46.533-45.869,34.592C43.23,237.217,20,221.061,20,176c0-31.254,17.753-60.999,49.988-83.755
			C103.096,68.872,146.783,56,193,56s89.904,12.872,123.012,36.245C348.247,115.001,366,144.746,366,176
			C366,207.994,354.035,232.158,333.172,242.298z"/>
	</g>
</g>
<g>
	<g>
		<path d="M344.941,164.219c-6.066-33.513-40.529-63.809-89.94-79.064c-5.276-1.628-10.875,1.328-12.505,6.605
			s1.327,10.876,6.604,12.505c41.607,12.845,71.501,37.777,76.16,63.516c0.99,5.468,6.224,9.039,11.622,8.059
			C342.317,174.857,345.924,169.653,344.941,164.219z"/>
	</g>
</g>
<g>
	<g>
		<path d="M476.74,289.064C455.301,274.191,427.482,266,398.41,266c-29.069,0-56.885,8.19-78.326,23.063
			c-22.74,15.774-35.264,36.936-35.264,59.587c0,23.578,10.22,42.621,27.338,50.94c14.617,7.105,32.16,4.852,41.911-7.04
			c6.146,20.662,2.746,46.475-1.613,71.75c-1.055,6.113,3.66,11.7,9.854,11.7h72.21c6.204,0,10.908-5.597,9.854-11.702
			c-4.372-25.321-7.782-51.183-1.588-71.865c9.981,12.211,27.713,14.277,42.1,7.283C493.038,395.753,512,382.843,512,348.65
			C512,325.999,499.478,304.837,476.74,289.064z M476.142,381.729c-9.903,4.815-23.094,1.48-19.618-14.562
			c0.958-4.423-1.174-8.939-5.198-11.009c-4.026-2.07-8.938-1.18-11.981,2.171c-23.372,25.749-21.878,62.918-16.592,97.671h-48.678
			c5.281-34.756,6.77-71.924-16.601-97.671c-3.041-3.35-7.956-4.242-11.98-2.17c-4.024,2.071-6.156,6.588-5.197,11.011
			c3.539,16.311-9.658,19.166-19.396,14.433c-4.835-2.35-16.081-10.265-16.081-32.953c0-15.901,9.469-31.227,26.664-43.153
			C349.346,293.106,373.74,286,398.41,286c24.674,0,49.069,7.106,66.93,19.497C482.532,317.422,492,332.748,492,348.65
			C492,364.773,486.22,376.83,476.142,381.729z"/>
	</g>
</g>
<g>
</g>
<g>
</g>
<g>
</g>
<g>
</g>
<g>
</g>
<g>
</g>
<g>
</g>
<g>
</g>
<g>
</g>
<g>
</g>
<g>
</g>
<g>
</g>
<g>
</g>
<g>
</g>
<g>
</g>
</svg>
