<?xml version="1.0" encoding="iso-8859-1"?>
<!-- Generator: Adobe Illustrator 19.0.0, SVG Export Plug-In . SVG Version: 6.00 Build 0)  -->
<svg version="1.1" id="Capa_1" xmlns="http://www.w3.org/2000/svg" xmlns:xlink="http://www.w3.org/1999/xlink" x="0px" y="0px"
	 viewBox="0 0 512.002 512.002" style="enable-background:new 0 0 512.002 512.002;" xml:space="preserve">
<g>
	<g>
		<path d="M383.897,195.971c-5.519,0-9.998,4.479-9.998,9.998s4.479,9.999,9.998,9.999s9.998-4.479,9.998-9.999
			S389.417,195.971,383.897,195.971z"/>
	</g>
</g>
<g>
	<g>
		<path d="M353.902,75.989c-5.519,0-9.998,4.479-9.998,9.998s4.479,9.998,9.998,9.998s9.998-4.479,9.998-9.998
			S359.421,75.989,353.902,75.989z"/>
	</g>
</g>
<g>
	<g>
		<path d="M382.019,235.948c-5.445-0.933-10.611,2.722-11.544,8.165c-4.422,25.789-13.062,53.547-25.678,82.505
			c-2.206,5.062,0.11,10.954,5.172,13.16c5.073,2.21,10.959-0.123,13.16-5.174c13.258-30.43,22.361-59.739,27.055-87.111
			C391.117,242.051,387.462,236.881,382.019,235.948z"/>
	</g>
</g>
<g>
	<g>
		<path d="M173.929,431.935c-5.522,0-9.998,4.476-9.998,9.999c0,5.522,4.476,9.998,9.998,9.998c5.513,0,9.999,4.485,9.999,9.998
			c0,16.567-13.427,29.995-29.995,29.995c-16.54,0-29.995-13.456-29.995-29.995v-77.254c17.23-4.451,29.995-20.127,29.995-38.728
			s-12.765-34.277-29.995-38.728v-91.252c0-16.54-13.456-29.995-29.995-29.995h-9.999c-11.026,0-19.997-8.971-19.997-19.997
			c0-11.026,8.971-19.997,19.997-19.997h59.991c22.053,0,39.994-17.941,39.994-39.994S165.986,65.99,143.933,65.99h-9.998
			c-5.513,0-9.998-4.485-9.998-9.998V9.998c0-5.522-4.476-9.998-9.999-9.998c-5.522,0-9.998,4.476-9.998,9.998v45.993
			c0,16.539,13.456,29.995,29.995,29.995h9.998c11.026,0,19.997,8.971,19.997,19.997c0,11.026-8.971,19.997-19.997,19.997H83.942
			c-22.053,0-39.994,17.941-39.994,39.994s17.941,39.994,39.994,39.994h9.999c5.513,0,9.998,4.485,9.998,9.999v91.252
			c-17.23,4.451-29.995,20.127-29.995,38.728s12.765,34.277,29.995,38.728v77.254c0,27.566,22.427,49.992,49.992,49.992
			c27.618,0,49.992-22.371,49.992-49.992C203.924,445.391,190.468,431.935,173.929,431.935z M113.938,365.945
			c-11.026,0-19.997-8.971-19.997-19.997s8.971-19.997,19.997-19.997c11.026,0,19.997,8.971,19.997,19.997
			S124.964,365.945,113.938,365.945z"/>
	</g>
</g>
<g>
	<g>
		<path d="M433.573,193.626c-1.151-23.381-5.564-47.771-13.159-72.599C399.874,53.866,363.372,5.913,361.829,3.904
			C359.937,1.443,357.007,0,353.902,0s-6.035,1.443-7.928,3.905c-1.544,2.009-38.044,49.961-58.585,117.121
			c-7.594,24.827-12.007,49.216-13.159,72.6c-40.205,22.168-35.838,62.795-32.294,95.714c1.02,9.469,1.982,18.411,1.982,26.612
			c0,4.043,2.437,7.69,6.172,9.238c3.743,1.551,8.042,0.686,10.896-2.167c8.519-8.519,18.427-13.769,30.107-15.944
			c14.443,46.219,34.352,85.123,45.645,105.334c-13.095,1.583-31.215,7.199-48.178,24.169c-30.772,30.76-24.244,65.355-23.95,66.813
			c0.794,3.95,3.881,7.038,7.832,7.832c0.45,0.09,4.047,0.773,9.714,0.773c12.711,0,35.823-3.44,57.095-24.72
			c6.329-6.325,11.084-12.808,14.649-19.153c3.564,6.345,8.319,12.826,14.646,19.15c21.279,21.288,44.39,24.724,57.1,24.724
			c5.663,0,9.263-0.683,9.713-0.773c3.95-0.794,7.038-3.881,7.832-7.832c0.293-1.458,6.822-36.053-23.948-66.81
			c-16.965-16.971-35.086-22.588-48.181-24.171c11.294-20.211,31.204-59.117,45.646-105.335
			c11.682,2.173,21.591,7.423,30.109,15.942c2.861,2.86,7.159,3.714,10.896,2.167c3.736-1.548,6.172-5.193,6.172-9.238
			c0-8.201,0.963-17.143,1.982-26.612C469.412,256.42,473.778,215.794,433.573,193.626z M262.789,296.518
			c-0.303-3.119-0.639-6.235-0.97-9.319c-3.441-31.967-4.279-54.361,12.388-69.304c1.023,21.863,4.817,45.285,11.325,69.904
			C277.378,289.526,269.783,292.436,262.789,296.518z M353.908,27.441c10.903,16.451,30.733,49.504,44.575,90.689
			c-14.228,5.206-29.184,7.85-44.58,7.85c-15.398,0-30.352-2.645-44.58-7.85C323.142,77.027,342.999,43.917,353.908,27.441z
			 M325.114,473.139c-15.588,15.594-32.054,18.61-41.306,18.887c0.276-9.241,3.292-25.707,18.893-41.304
			c15.509-15.516,31.884-18.579,41.161-18.882c0.01,0.465,0.016,0.928,0.035,1.394C343.294,443.547,339.522,458.739,325.114,473.139
			z M405.104,450.725c15.59,15.583,18.609,32.043,18.887,41.296c-9.28-0.278-25.73-3.305-41.305-18.885
			c-14.413-14.404-18.181-29.605-18.781-39.895c0.019-0.466,0.025-0.936,0.035-1.404
			C373.207,432.14,389.587,435.202,405.104,450.725z M353.902,402.044c-32.407-58.42-61.561-135.257-59.914-201.91
			c0.512-20.151,3.718-41.242,9.532-62.832c16.109,5.757,33.006,8.676,50.382,8.676c17.376,0,34.274-2.919,50.382-8.676
			c5.812,21.588,9.02,42.677,9.532,62.827C415.481,267.057,386.019,344.145,353.902,402.044z M445.985,287.2
			c-0.332,3.084-0.667,6.201-0.97,9.32c-6.994-4.082-14.589-6.993-22.744-8.719c6.508-24.62,10.301-48.043,11.325-69.904
			C450.265,232.839,449.427,255.233,445.985,287.2z"/>
	</g>
</g>
<g>
</g>
<g>
</g>
<g>
</g>
<g>
</g>
<g>
</g>
<g>
</g>
<g>
</g>
<g>
</g>
<g>
</g>
<g>
</g>
<g>
</g>
<g>
</g>
<g>
</g>
<g>
</g>
<g>
</g>
</svg>
