<?xml version="1.0" encoding="iso-8859-1"?>
<!-- Generator: Adobe Illustrator 19.0.0, SVG Export Plug-In . SVG Version: 6.00 Build 0)  -->
<svg version="1.1" id="Capa_1" xmlns="http://www.w3.org/2000/svg" xmlns:xlink="http://www.w3.org/1999/xlink" x="0px" y="0px"
	 viewBox="0 0 512.002 512.002" style="enable-background:new 0 0 512.002 512.002;" xml:space="preserve">
<g>
	<g>
		<path d="M383.044,186.366c-5.521,0-10.001,4.48-10.001,10.001c0,5.521,4.48,10.001,10.001,10.001s10.001-4.48,10.001-10.001
			C393.045,190.846,388.564,186.366,383.044,186.366z"/>
	</g>
</g>
<g>
	<g>
		<path d="M129.188,186.366c-5.531,0-10.001,4.48-10.001,10.001c0,5.521,4.47,10.001,10.001,10.001
			c5.521,0,10.001-4.48,10.001-10.001C139.189,190.846,134.709,186.366,129.188,186.366z"/>
	</g>
</g>
<g>
	<g>
		<path d="M477.603,83.563c-26.11,0-52.348,6.425-78.018,19.109c-47.715,23.59-86.839,65.553-111.873,103.15
			c-4.276-15.462-10.994-30.578-21.44-36.66c1.771-28.09,13.697-58.006,32.674-81.352c21.731-26.736,49.113-41.46,77.099-41.46
			c5.523,0,10.001-4.477,10.001-10.001s-4.478-10.001-10.001-10.001c-34.123,0-67.017,17.347-92.62,48.846
			c-11.751,14.457-21.019,30.784-27.392,47.834c-6.373-17.051-15.641-33.377-27.392-47.834
			c-25.605-31.499-58.497-48.846-92.62-48.846c-5.523,0-10.001,4.477-10.001,10.001s4.478,10.001,10.001,10.001
			c27.985,0,55.367,14.724,77.099,41.46c18.977,23.346,30.903,53.262,32.674,81.352c-10.493,6.107-17.227,21.328-21.506,36.891
			c-24.992-37.625-64.034-79.612-111.651-103.253C86.279,89.707,59.311,83.237,32.415,83.575
			c-22.607,0.302-38.194,22.875-30.37,44.091c8.363,22.496,15.771,42.735,19.628,67.712c2.502,16.265,2.966,32.213,1.378,47.405
			c-2.198,21.044,14.71,37.607,35.012,42.295c-9.227,7.395-14.746,18.692-14.873,30.674c-0.068,7.047,0.045,14.233,0.339,21.367
			c1.537,36.772,8.062,72.645,18.367,101.035c0.002,0.007,0.005,0.013,0.007,0.02c0.017,0.047,0.033,0.095,0.05,0.142
			c5.305,14.601,11.29,26.184,17.314,33.497c12.296,14.927,33.764,18.248,49.932,7.665c42.987-28.08,79.587-79.678,100.682-116.687
			c6.793,15.519,15.655,23.595,26.152,23.595c10.45,0,19.28-8.006,26.059-23.384c21.064,36.884,57.651,88.35,100.72,116.473
			c16.298,10.658,37.736,7.15,49.938-7.663c7.425-9.015,15.056-26.11,17.495-34.012c10.24-28.335,16.718-64.073,18.242-100.701
			c0.296-6.92,0.409-14.102,0.338-21.343c-0.114-11.95-5.605-23.231-14.803-30.632c8.461-1.91,16.472-5.935,22.636-11.553
			c0.083-0.074,0.163-0.15,0.243-0.227c8.981-8.292,13.269-19.137,12.072-30.56c-1.59-15.228-1.123-31.192,1.387-47.45
			c3.875-25.075,11.461-45.733,19.609-67.669C517.448,107.425,503.762,83.563,477.603,83.563z M20.81,120.738
			c-3.049-8.264,3.013-17.044,11.863-17.162c21.264-0.247,42.798,4.4,64.023,13.841c-7.087,29.337-28.961,53.552-57.265,63.725
			C34.863,158.645,28.183,140.585,20.81,120.738z M45.114,254.124c-1.527-2.512-2.55-5.612-2.168-9.263
			c1.474-14.109,1.342-28.764-0.344-43.674c17.795-5.66,33.829-15.747,46.772-29.527c12.072-12.853,20.759-28.192,25.545-44.906
			c46.706,27.13,84.203,73.667,103.708,108.279c-1.316,10.01-2.135,20.502-2.446,31.34H97.005c-0.037,0-0.074-0.001-0.111,0H69.182
			c-0.963,0-1.935-0.056-2.909-0.157c16.209-8.407,31.412-18.99,44.731-31.234c4.066-3.738,4.332-10.064,0.595-14.13
			c-3.738-4.066-10.064-4.333-14.131-0.594C82.449,234.063,64.068,245.919,45.114,254.124z M77.541,421.946
			c-5.001-16.012-11.148-41.552-13.451-75.252c19.749,2.429,35.095,19.297,35.095,39.692
			C99.185,401.637,90.623,415.209,77.541,421.946z M118.25,462.737c-7.61,4.98-17.734,3.415-23.546-3.64
			c-2.068-2.512-5.808-7.935-10.258-18.269c20.901-9.668,34.742-30.699,34.742-54.443c0-31.724-24.751-57.762-55.955-59.854
			c-0.06-3.545-0.076-7.082-0.042-10.577c0.067-6.357,3.158-12.315,8.269-15.942c8.003-5.678,17.166-10.252,27.234-13.637h117.484
			c0.51,17.782,2.377,34.651,5.494,49.442C204.61,369.973,165.3,432.003,118.25,462.737z M270.058,335.129
			c-5.443,23.56-12.202,30.44-14.027,31.216c-1.837-0.781-8.64-7.72-14.094-31.491c-3.864-16.85-5.908-37.072-5.908-58.48
			c0-14.693,0.958-28.782,2.848-41.876c5.244-36.341,14.74-47.096,17.154-48.096c2.403,0.997,11.859,11.688,17.106,47.8
			c1.921,13.19,2.896,27.38,2.896,42.172C276.033,297.939,273.968,318.254,270.058,335.129z M434.505,421.848
			c-12.973-6.774-21.458-20.302-21.458-35.463c0-20.319,15.231-37.136,34.873-39.664
			C445.623,380.354,439.497,405.847,434.505,421.848z M448.785,326.548c-31.102,2.198-55.74,28.186-55.74,59.837
			c0,23.642,13.767,44.642,34.558,54.354c-4.472,10.4-8.223,15.841-10.293,18.354c-5.815,7.056-15.94,8.62-23.557,3.636
			c-47.133-30.776-86.4-92.588-103.424-126.617c3.156-14.841,5.046-31.813,5.559-49.738h117.442
			c10.075,3.389,19.238,7.964,27.235,13.637c5.109,3.625,8.197,9.581,8.258,15.936C448.857,319.508,448.843,323.049,448.785,326.548
			z M469.077,244.864c0.345,3.293-0.331,6.382-2.006,9.236c-18.951-8.206-37.313-20.053-52.303-33.841
			c-4.065-3.739-10.393-3.473-14.131,0.591c-3.738,4.065-3.475,10.392,0.591,14.131c13.312,12.244,28.519,22.829,44.74,31.239
			c-0.975,0.1-1.949,0.154-2.916,0.154h-27.929c-0.028,0-0.057,0-0.085,0H295.882c-0.314-10.944-1.149-21.541-2.49-31.649
			c19.544-34.578,57.105-81.051,103.878-108.109c4.76,16.714,13.423,32.059,25.474,44.925c12.91,13.784,28.915,23.888,46.685,29.577
			C467.734,216.034,467.599,230.712,469.077,244.864z M491.204,120.735c-7.544,20.324-14.051,37.965-18.598,60.333
			c-28.248-10.226-50.06-34.45-57.101-63.754c21.177-9.375,42.6-14.002,63.834-13.737
			C488.174,103.694,494.264,112.452,491.204,120.735z"/>
	</g>
</g>
<g>
</g>
<g>
</g>
<g>
</g>
<g>
</g>
<g>
</g>
<g>
</g>
<g>
</g>
<g>
</g>
<g>
</g>
<g>
</g>
<g>
</g>
<g>
</g>
<g>
</g>
<g>
</g>
<g>
</g>
</svg>
