<?xml version="1.0" encoding="iso-8859-1"?>
<!-- Generator: Adobe Illustrator 19.0.0, SVG Export Plug-In . SVG Version: 6.00 Build 0)  -->
<svg version="1.1" id="Capa_1" xmlns="http://www.w3.org/2000/svg" xmlns:xlink="http://www.w3.org/1999/xlink" x="0px" y="0px"
	 viewBox="0 0 512.001 512.001" style="enable-background:new 0 0 512.001 512.001;" xml:space="preserve">
<g>
	<g>
		<path d="M406.298,139.829L393.218,22.1c-0.424-3.821-3.001-7.06-6.628-8.333c-3.628-1.271-7.664-0.352-10.382,2.365l-49.5,49.5
			c-58.36-57.363-56.989-59.32-66.425-63.275c-0.051-0.022-0.101-0.046-0.152-0.067c-0.014-0.006-0.027-0.012-0.041-0.018
			c-4.656-1.925-9.764-2.648-14.756-2.087l-117.719,13.08c-3.82,0.425-7.06,3.001-8.332,6.629
			c-1.272,3.628-0.353,7.663,2.365,10.381l49.496,49.501l-56.847,56.847c-2.732,2.733-4.883,5.933-6.417,9.542
			c-0.03,0.068-0.062,0.135-0.09,0.204c-0.007,0.016-0.015,0.032-0.021,0.048c-1.911,4.656-2.626,9.753-2.067,14.731l13.08,117.719
			c0.927,8.357,11.112,11.865,17.01,5.966l49.498-49.497l38.281,38.287v208.379c0,16.542,13.458,30,30,30c16.542,0,30-13.458,30-30
			v-183.1L384.384,287.7c3.82-0.425,7.06-3.001,8.332-6.629c1.272-3.628,0.353-7.663-2.365-10.381l-49.499-49.499l56.837-56.837
			C404.229,157.818,407.295,148.73,406.298,139.829z M258.917,26.131l53.651,53.643l-38.676,38.676
			c-7.144-4.231-15.414-6.101-23.764-5.39C240.883,83.985,244.074,52.612,258.917,26.131z M150.504,30.845l88.49-9.832
			c-13.751,27.042-17.558,57.943-10.822,87.508C217.247,97.596,161.414,41.755,150.504,30.845z M185.287,93.917l35.731,35.735
			c-5.752,8.012-8.364,17.942-7.15,28.073c-27.699,7.424-57.288,3.749-82.218-10.171L185.287,93.917z M136.363,255.977
			l-9.836-88.518c18.294,9.261,38.474,14.027,58.804,14.027c9.608,0,19.248-1.067,28.734-3.212
			C206.578,185.761,145.752,246.588,136.363,255.977z M263.57,482.001c0,5.514-4.486,9.999-10,9.999c-5.514,0-10-4.486-10-10
			V293.522c5.433,4.766,12.465,7.443,19.776,7.443c0.074,0,0.149-0.006,0.224-0.006V482.001z M253.069,274.837l-53.637-53.645
			l33.818-33.817c8.614,5.101,19.201,6.95,29.765,4.385C270.777,219.722,267.194,249.588,253.069,274.837z M263.955,169.998
			c-7.498,4.595-17.708,3.869-24.536-2.959c-8.334-8.305-7.779-22.254,1.755-29.805c7.606-6.079,19.085-5.911,26.554,1.558
			C276.894,147.916,275.011,163.279,263.955,169.998z M361.496,270.119l-88.506,9.834c13.693-26.993,17.51-57.969,10.796-87.536
			C283.901,192.532,361.166,269.79,361.496,270.119z M326.709,207.05l-37.012-37.004c3.598-7.59,4.866-16.284,3.035-25.194
			c28.97-9.335,61.08-6.185,87.606,8.569L326.709,207.05z M297.909,122.716l77.73-77.73l9.836,88.524
			C359.018,120.121,328.246,115.859,297.909,122.716z"/>
	</g>
</g>
<g>
</g>
<g>
</g>
<g>
</g>
<g>
</g>
<g>
</g>
<g>
</g>
<g>
</g>
<g>
</g>
<g>
</g>
<g>
</g>
<g>
</g>
<g>
</g>
<g>
</g>
<g>
</g>
<g>
</g>
</svg>
