<?xml version="1.0" encoding="iso-8859-1"?>
<!-- Generator: Adobe Illustrator 19.0.0, SVG Export Plug-In . SVG Version: 6.00 Build 0)  -->
<svg version="1.1" id="Capa_1" xmlns="http://www.w3.org/2000/svg" xmlns:xlink="http://www.w3.org/1999/xlink" x="0px" y="0px"
	 viewBox="0 0 512 512" style="enable-background:new 0 0 512 512;" xml:space="preserve">
<g>
	<g>
		<path d="M302,368.5c-5.52,0-10,4.48-10,10c0,5.52,4.48,10,10,10c5.52,0,10-4.48,10-10C312,372.98,307.52,368.5,302,368.5z"/>
	</g>
</g>
<g>
	<g>
		<path d="M302,408.5c-5.52,0-10,4.48-10,10c0,5.52,4.48,10,10,10c5.52,0,10-4.48,10-10C312,412.98,307.52,408.5,302,408.5z"/>
	</g>
</g>
<g>
	<g>
		<path d="M302,448.5c-5.52,0-10,4.48-10,10c0,5.52,4.48,10,10,10c5.52,0,10-4.48,10-10C312,452.98,307.52,448.5,302,448.5z"/>
	</g>
</g>
<g>
	<g>
		<path d="M472,166.506V135.5c0-16.542-13.458-30-30-30H230c-16.542,0-30,13.458-30,30v30h-80v-10c0-13.327-8.607-24.277-20-28.297
			V10.5c0-5.523-4.477-10-10-10s-10,4.477-10,10v116.72c-11.639,4.128-20,15.243-20,28.28v10H50c-27.57,0-50,22.43-50,50v246
			c0,27.57,22.43,50,50,50h412c27.57,0,50-22.43,50-50v-246C512,191.354,494.795,171.152,472,166.506z M220,135.5
			c0-5.514,4.486-10,10-10h212c5.514,0,10,4.486,10,10v30H220V135.5z M80,155.5c0-5.514,4.486-10,10-10c5.521,0,10,4.478,10,10v10
			H80V155.5z M492,461.5c0,16.542-13.458,30-30,30H50c-16.542,0-30-13.458-30-30v-246c0-16.542,13.458-30,30-30
			c21.497,0,399.704,0,412,0c16.542,0,30,13.458,30,30V461.5z"/>
	</g>
</g>
<g>
	<g>
		<path d="M422,228.5H90c-16.542,0-30,13.458-30,30v60c0,16.542,13.458,30,30,30h332c16.542,0,30-13.458,30-30v-60
			C452,241.958,438.542,228.5,422,228.5z M372,328.5H90c-5.514,0-10-4.486-10-10v-20h292V328.5z M432,318.5c0,5.514-4.486,10-10,10
			h-30v-30h40V318.5z M432,278.5h-40c0-5.523-4.477-10-10-10s-10,4.477-10,10H80v-20c0-5.514,4.486-10,10-10h332
			c5.514,0,10,4.486,10,10V278.5z"/>
	</g>
</g>
<g>
	<g>
		<path d="M110,368.5c-27.57,0-50,22.43-50,50s22.43,50,50,50s50-22.43,50-50S137.57,368.5,110,368.5z M110,448.5
			c-16.542,0-30-13.458-30-30s13.458-30,30-30s30,13.458,30,30S126.542,448.5,110,448.5z"/>
	</g>
</g>
<g>
	<g>
		<path d="M442,368.5H342c-5.523,0-10,4.477-10,10s4.477,10,10,10h100c5.523,0,10-4.477,10-10S447.523,368.5,442,368.5z"/>
	</g>
</g>
<g>
	<g>
		<path d="M442,408.5H342c-5.523,0-10,4.477-10,10s4.477,10,10,10h100c5.523,0,10-4.477,10-10S447.523,408.5,442,408.5z"/>
	</g>
</g>
<g>
	<g>
		<path d="M442,448.5H342c-5.523,0-10,4.477-10,10s4.477,10,10,10h100c5.523,0,10-4.477,10-10S447.523,448.5,442,448.5z"/>
	</g>
</g>
<g>
</g>
<g>
</g>
<g>
</g>
<g>
</g>
<g>
</g>
<g>
</g>
<g>
</g>
<g>
</g>
<g>
</g>
<g>
</g>
<g>
</g>
<g>
</g>
<g>
</g>
<g>
</g>
<g>
</g>
</svg>
