<?xml version="1.0" encoding="iso-8859-1"?>
<!-- Generator: Adobe Illustrator 19.0.0, SVG Export Plug-In . SVG Version: 6.00 Build 0)  -->
<svg version="1.1" id="Capa_1" xmlns="http://www.w3.org/2000/svg" xmlns:xlink="http://www.w3.org/1999/xlink" x="0px" y="0px"
	 viewBox="0 0 512 512" style="enable-background:new 0 0 512 512;" xml:space="preserve">
<g>
	<g>
		<path d="M511.916,71.101c0.02-15.489-4.486-30.676-12.794-43.631l6.899-6.899c3.903-3.903,3.904-10.233,0-14.136
			c-3.903-3.904-10.233-3.903-14.136,0l-6.441,6.44c-25.332-17.629-65.788-19.047-92.507,7.703l-63.613,63.611l-21.209-21.209
			c-3.903-3.903-10.233-3.903-14.137,0c-3.903,3.903-3.903,10.233,0,14.137l21.208,21.208l-35.343,35.342l-21.208-21.208
			c-3.903-3.903-10.233-3.903-14.137,0c-3.903,3.903-3.903,10.233,0,14.137l21.207,21.207l-35.34,35.339l-21.2-21.203
			c-3.903-3.903-10.233-3.903-14.137,0c-3.903,3.903-3.903,10.233,0,14.137l21.2,21.203l-68.036,68.034
			c-5.702-4.076-12.214-6.911-19.084-8.319v-31.011c0-5.521-4.475-9.996-9.996-9.996H79.131c-5.521,0-9.996,4.475-9.996,9.996
			c0,5.521,4.475,9.996,9.996,9.996h29.987v20.997c-22.785,4.644-39.983,24.836-39.983,48.973c0,25.855,19.733,47.185,44.93,49.725
			L8.814,460.807c-11.717,11.717-11.722,30.683,0,42.404c11.713,11.713,30.68,11.724,42.4,0.004l128.313-128.18l7.221,7.219
			c3.903,3.903,10.233,3.903,14.137,0c3.903-3.903,3.903-10.233,0-14.137l-7.213-7.211L463.608,91.26
			c9.401-9.399,11.098-23.224,5.869-34.146l15.063-15.063c4.813,8.859,7.498,18.859,7.485,29.038l0.06,400.793
			c-0.013,11.019-9.086,19.983-20.101,19.983c-11.034,0-20.011-8.977-20.011-20.011v-9.976c0-5.521-4.475-9.996-9.996-9.996
			s-9.996,4.475-9.996,9.996v9.976c0,22.057,17.945,40.003,40.003,40.003c22.026,0,39.966-17.922,39.993-39.964L511.916,71.101z
			 M329.324,112.46l14.092,14.092l-35.361,35.324l-14.074-14.074L329.324,112.46z M279.845,161.938l14.067,14.067l-35.36,35.323
			l-14.048-14.05L279.845,161.938z M230.368,211.413l14.04,14.044l-75.567,75.496c-0.745-7.466-3.152-14.623-7.031-20.985
			L230.368,211.413z M89.13,305.946c0-13.03,8.357-24.142,19.991-28.268v28.268c0,5.521,4.475,9.996,9.996,9.996
			s9.996-4.475,9.996-9.996V277.69c11.989,4.248,19.991,15.546,19.991,28.256c0,16.562-13.423,29.987-29.987,29.987
			C102.582,335.933,89.13,322.481,89.13,305.946z M37.08,489.076c-3.905,3.905-10.225,3.906-14.132,0
			c-3.908-3.908-3.901-10.23-0.003-14.128l128.311-128.175l14.132,14.129L37.08,489.076z M449.476,77.12L179.532,346.773
			L165.4,332.644c5.194-5.179,79.299-78.966,199.218-199.018l70.723-70.643c3.894-3.894,10.234-3.897,14.14,0.01
			C453.375,66.872,453.387,73.21,449.476,77.12z M455.326,42.994c-11.142-5.308-24.905-3.362-34.115,5.849l-63.65,63.582
			l-14.099-14.099l63.616-63.615c19.382-19.404,46.967-16.963,63.847-7.316L455.326,42.994z"/>
	</g>
</g>
<g>
</g>
<g>
</g>
<g>
</g>
<g>
</g>
<g>
</g>
<g>
</g>
<g>
</g>
<g>
</g>
<g>
</g>
<g>
</g>
<g>
</g>
<g>
</g>
<g>
</g>
<g>
</g>
<g>
</g>
</svg>
