<?xml version="1.0" encoding="iso-8859-1"?>
<!-- Generator: Adobe Illustrator 19.0.0, SVG Export Plug-In . SVG Version: 6.00 Build 0)  -->
<svg version="1.1" id="Capa_1" xmlns="http://www.w3.org/2000/svg" xmlns:xlink="http://www.w3.org/1999/xlink" x="0px" y="0px"
	 viewBox="0 0 512.001 512.001" style="enable-background:new 0 0 512.001 512.001;" xml:space="preserve">
<g>
	<g>
		<path d="M256,106c-5.52,0-10,4.48-10,10s4.48,10,10,10s10-4.48,10-10S261.52,106,256,106z"/>
	</g>
</g>
<g>
	<g>
		<path d="M502,429h-44.316c21.789-12.09,39.955-28.442,52.635-47.451c2.047-3.068,2.238-7.014,0.498-10.267
			C509.077,368.03,505.688,366,502,366h-18.295C502.488,329.148,512,292.215,512,256C512,117.949,394.141,0,256,0
			C118.087,0,0,117.702,0,256c0,36.215,9.512,73.147,28.295,110H10c-3.688,0-7.077,2.03-8.817,5.282
			c-1.739,3.252-1.549,7.197,0.497,10.266C14.612,400.943,33.077,417.265,54.17,429H10c-3.688,0-7.077,2.03-8.817,5.282
			c-1.739,3.252-1.549,7.197,0.497,10.266C28.581,484.893,79.39,512,128.11,512h255.78c48.272,0,99.718-27.406,126.43-67.451
			c2.047-3.068,2.238-7.014,0.498-10.267C509.077,431.03,505.688,429,502,429z M20,256C20,128.075,128.075,20,256,20
			s236,108.075,236,236c0,35.956-10.413,72.937-30.947,110h-50.016C435.638,332.514,449,294.128,449,256
			c0-104.617-88.383-193-193-193S63,151.383,63,256c0,38.127,13.362,76.514,37.964,110H50.947C30.413,328.937,20,291.956,20,256z
			 M385.517,366H126.483C98.411,333.285,83,294.384,83,256c0-93.776,79.225-173,173-173s173,79.224,173,173
			C429,294.384,413.589,333.285,385.517,366z M30.811,385.9c20.642,0,425.191,0,450.425,0C457.281,411.192,420.06,429,383.89,429
			H128.11C93.052,429,55.523,411.848,30.811,385.9z M383.89,492H128.11c-35.058,0-72.587-17.152-97.299-43.1
			c14.995,0,439.362,0,450.425,0C457.281,474.192,420.06,492,383.89,492z"/>
	</g>
</g>
<g>
	<g>
		<path d="M298.432,112.11c-5.301-1.567-10.858,1.462-12.423,6.758c-1.563,5.296,1.462,10.858,6.759,12.422
			C347.661,147.502,386,198.784,386,256c0,5.523,4.478,10,10,10c5.522,0,10-4.477,10-10C406,187.369,359.918,130.267,298.432,112.11
			z"/>
	</g>
</g>
<g>
</g>
<g>
</g>
<g>
</g>
<g>
</g>
<g>
</g>
<g>
</g>
<g>
</g>
<g>
</g>
<g>
</g>
<g>
</g>
<g>
</g>
<g>
</g>
<g>
</g>
<g>
</g>
<g>
</g>
</svg>
