<?xml version="1.0" encoding="iso-8859-1"?>
<!-- Generator: Adobe Illustrator 19.0.0, SVG Export Plug-In . SVG Version: 6.00 Build 0)  -->
<svg version="1.1" id="Capa_1" xmlns="http://www.w3.org/2000/svg" xmlns:xlink="http://www.w3.org/1999/xlink" x="0px" y="0px"
	 viewBox="0 0 512 512" style="enable-background:new 0 0 512 512;" xml:space="preserve">
<g>
	<g>
		<path d="M256,209c-5.52,0-10,4.48-10,10s4.48,10,10,10s10-4.48,10-10S261.52,209,256,209z"/>
	</g>
</g>
<g>
	<g>
		<path d="M316,209c-16.542,0-30,13.458-30,30s13.458,30,30,30s30-13.458,30-30S332.542,209,316,209z M316,249
			c-5.514,0-10-4.486-10-10c0-5.514,4.486-10,10-10c5.514,0,10,4.486,10,10C326,244.514,321.514,249,316,249z"/>
	</g>
</g>
<g>
	<g>
		<path d="M196,209c-16.542,0-30,13.458-30,30s13.458,30,30,30s30-13.458,30-30S212.542,209,196,209z M196,249
			c-5.514,0-10-4.486-10-10c0-5.514,4.486-10,10-10c5.514,0,10,4.486,10,10C206,244.514,201.514,249,196,249z"/>
	</g>
</g>
<g>
	<g>
		<path d="M196,369c-16.542,0-30,13.458-30,30s13.458,30,30,30s30-13.458,30-30S212.542,369,196,369z M196,409
			c-5.514,0-10-4.486-10-10c0-5.514,4.486-10,10-10c5.514,0,10,4.486,10,10C206,404.514,201.514,409,196,409z"/>
	</g>
</g>
<g>
	<g>
		<path d="M316,369c-16.542,0-30,13.458-30,30s13.458,30,30,30s30-13.458,30-30S332.542,369,316,369z M316,409
			c-5.514,0-10-4.486-10-10c0-5.514,4.486-10,10-10c5.514,0,10,4.486,10,10C326,404.514,321.514,409,316,409z"/>
	</g>
</g>
<g>
	<g>
		<path d="M476,309h-50.243c-1.717-36.79-12.862-72.376-32.037-102.485C423.395,198.073,446,169.145,446,136c0-5.523-4.478-10-10-10
			c-5.522,0-10,4.477-10,10c0,26.445-20.599,49.932-45.08,52.718c-15.79-19.502-34.984-35.216-56.089-45.982
			C325.602,138.55,326,134.292,326,130c0-26.652-15.242-50.866-38.665-62.609C293.125,39.931,317.203,20,346,20
			c5.522,0,10-4.477,10-10s-4.478-10-10-10c-37.551,0-69.195,25.9-77.73,61.076C264.242,60.363,260.143,60,256,60
			s-8.242,0.363-12.27,1.076C235.187,25.866,203.516,0,166,0c-5.522,0-10,4.477-10,10s4.478,10,10,10
			c28.797,0,52.875,19.932,58.665,47.391C201.241,79.135,186,103.348,186,130c0,4.292,0.398,8.55,1.169,12.735
			c-21.115,10.771-40.318,26.497-56.113,46.014C105.817,186.248,86,164.85,86,139c0-5.523-4.478-10-10-10c-5.522,0-10,4.477-10,10
			c0,32.363,22.185,59.748,52.174,67.682C99.064,236.756,87.957,272.278,86.243,309H36c-5.522,0-10,4.477-10,10s4.478,10,10,10
			h50.243c1.717,36.79,12.862,72.376,32.037,102.486C88.605,439.928,66,468.855,66,502c0,5.523,4.478,10,10,10
			c5.522,0,10-4.477,10-10c0-26.445,20.599-49.932,45.08-52.718C163.388,489.209,208.632,512,256,512
			c47.366,0,92.609-22.789,124.916-62.714C405.423,452.093,426,475.57,426,502c0,5.523,4.478,10,10,10c5.522,0,10-4.477,10-10
			c0-33.135-22.592-62.055-52.285-70.507c19.178-30.111,30.325-65.7,32.042-102.493H476c5.522,0,10-4.477,10-10S481.522,309,476,309
			z M239.084,82.93C244.491,80.986,250.183,80,256,80s11.509,0.986,16.918,2.931C292.705,90.042,306,108.958,306,130
			c0,1.522-0.076,3.036-0.212,4.542C289.695,128.872,272.999,126,256,126c-16.999,0-33.694,2.871-49.788,8.542
			c-0.135-1.506-0.212-3.02-0.212-4.542C206,108.958,219.295,90.042,239.084,82.93z M266,491.591V259c0-5.523-4.478-10-10-10
			c-5.522,0-10,4.477-10,10v232.591C169.974,485.601,106,411.45,106,319c0-88.058,60.378-166.456,140-172.612V179
			c0,5.523,4.478,10,10,10c5.522,0,10-4.477,10-10v-32.612C346.094,152.58,406,231.411,406,319
			C406,406.738,346.142,485.277,266,491.591z"/>
	</g>
</g>
<g>
	<g>
		<path d="M346,289c-22.43,0-40,13.178-40,30c0,16.822,17.57,30,40,30s40-13.178,40-30C386,302.178,368.43,289,346,289z M346,329
			c-12.209,0-20-5.923-20-10c0-4.077,7.791-10,20-10c12.209,0,20,5.923,20,10C366,323.077,358.209,329,346,329z"/>
	</g>
</g>
<g>
	<g>
		<path d="M166,289c-22.43,0-40,13.178-40,30c0,16.822,17.57,30,40,30s40-13.178,40-30C206,302.178,188.43,289,166,289z M166,329
			c-12.209,0-20-5.923-20-10c0-4.077,7.791-10,20-10s20,5.923,20,10C186,323.077,178.209,329,166,329z"/>
	</g>
</g>
<g>
</g>
<g>
</g>
<g>
</g>
<g>
</g>
<g>
</g>
<g>
</g>
<g>
</g>
<g>
</g>
<g>
</g>
<g>
</g>
<g>
</g>
<g>
</g>
<g>
</g>
<g>
</g>
<g>
</g>
</svg>
