<?xml version="1.0" encoding="iso-8859-1"?>
<!-- Generator: Adobe Illustrator 19.0.0, SVG Export Plug-In . SVG Version: 6.00 Build 0)  -->
<svg version="1.1" id="Capa_1" xmlns="http://www.w3.org/2000/svg" xmlns:xlink="http://www.w3.org/1999/xlink" x="0px" y="0px"
	 viewBox="0 0 512 512" style="enable-background:new 0 0 512 512;" xml:space="preserve">
<g>
	<g>
		<path d="M332.829,116.35c-3.9-3.91-10.24-3.91-14.14,0c-3.91,3.9-3.91,10.23,0,14.14c3.9,3.9,10.239,3.9,14.14,0
			C336.739,126.58,336.739,120.25,332.829,116.35z"/>
	</g>
</g>
<g>
	<g>
		<path d="M434.748,217.988V28.282l11.211-11.211c3.905-3.905,3.905-10.237,0-14.142c-3.906-3.905-10.236-3.905-14.143,0L420.746,14
			H230.761L219.689,2.929c-3.905-3.905-10.237-3.905-14.142,0c-3.905,3.905-3.905,10.237,0,14.142l10.079,10.079l-63.517,247.838
			c-2.026-0.528-4.118-0.849-6.253-0.945l-5.453-27.279c-4.703-23.46-33.704-32.241-50.636-15.325l-17.863,17.863
			c-16.913,16.928-8.134,45.929,15.334,50.634l27.29,5.455c0.181,3.962,1.145,7.892,2.884,11.542l-8.287,8.287
			c-27.289,27.3-27.288,71.712,0.005,99.004c13.229,13.217,30.804,20.496,49.488,20.496c33.009,0,50.628-22.029,51.932-22.929
			c11.719-11.719,30.687-11.729,42.422,0.005c11.719,11.704,11.73,30.703-0.005,42.423l-30.71,30.71
			c-3.905,3.905-3.906,10.237,0,14.142c3.904,3.904,10.236,3.907,14.142,0l30.706-30.706c19.546-19.522,19.558-51.186,0.005-70.716
			c-19.537-19.537-51.16-19.542-70.702,0c-1.248,0.872-13.715,17.072-37.79,17.072c-13.345,0-25.9-5.201-35.349-14.642
			c-19.493-19.493-19.492-51.217,0-70.717l8.269-8.27c3.584,1.716,7.499,2.702,11.564,2.885l5.46,27.274
			c4.7,23.514,33.723,32.22,50.624,15.334c0.001-0.001,0.002-0.002,0.003-0.003l17.861-17.86
			c16.921-16.922,8.147-45.93-15.332-50.637l-27.273-5.452c-0.096-2.126-0.416-4.211-0.943-6.232l248.199-63.176l10.116,10.116
			c1.953,1.953,4.512,2.929,7.071,2.929s5.118-0.977,7.071-2.929c3.905-3.905,3.905-10.237,0-14.142L434.748,217.988z
			 M119.981,286.085l-28.817-5.76c-7.833-1.571-10.77-11.223-5.114-16.884l17.856-17.857c5.677-5.672,15.321-2.701,16.886,5.106
			l5.761,28.823L119.981,286.085z M151.538,311.088c-3.888,3.899-10.231,3.899-14.119,0c-0.003-0.003-0.006-0.006-0.009-0.009
			c-3.898-3.897-3.898-10.24,0.009-14.147c3.889-3.899,10.229-3.9,14.119,0C155.46,300.864,155.462,307.154,151.538,311.088z
			 M197.793,327.696c7.858,1.575,10.761,11.237,5.115,16.883l-17.857,17.857c-5.663,5.659-15.311,2.727-16.876-5.108l-5.77-28.821
			l6.571-6.571L197.793,327.696z M414.849,197.987l-53.599-53.499c-3.906-3.905-10.236-3.904-14.143,0
			c-3.905,3.906-3.905,10.237,0,14.143l58.143,58.143l-213.719,54.399l112.858-112.532c3.911-3.899,3.92-10.231,0.021-14.142
			c-3.899-3.911-10.232-3.92-14.142-0.02L177.346,257.074l54.714-213.49l58.488,58.487c3.906,3.905,10.236,3.905,14.143,0
			c3.905-3.905,3.905-10.237,0-14.143L250.761,34h149.985l-53.919,53.919c-3.905,3.905-3.905,10.237,0,14.142
			c3.904,3.904,10.236,3.907,14.143,0l53.879-53.78V197.987z"/>
	</g>
</g>
<g>
</g>
<g>
</g>
<g>
</g>
<g>
</g>
<g>
</g>
<g>
</g>
<g>
</g>
<g>
</g>
<g>
</g>
<g>
</g>
<g>
</g>
<g>
</g>
<g>
</g>
<g>
</g>
<g>
</g>
</svg>
