<?xml version="1.0" encoding="iso-8859-1"?>
<!-- Generator: Adobe Illustrator 19.0.0, SVG Export Plug-In . SVG Version: 6.00 Build 0)  -->
<svg version="1.1" id="Capa_1" xmlns="http://www.w3.org/2000/svg" xmlns:xlink="http://www.w3.org/1999/xlink" x="0px" y="0px"
	 viewBox="0 0 512 512" style="enable-background:new 0 0 512 512;" xml:space="preserve">
<g>
	<g>
		<path d="M263.07,142.93c-3.9-3.91-10.24-3.91-14.14,0c-3.91,3.9-3.91,10.24,0,14.14c3.9,3.91,10.24,3.91,14.14,0
			C266.98,153.17,266.98,146.83,263.07,142.93z"/>
	</g>
</g>
<g>
	<g>
		<path d="M436,492h-36.748c-11.485-24.188-36.063-40-63.252-40c-5.416,0-10.809,0.648-16.124,1.934
			c-5.05-11.522-13.041-21.287-22.897-28.492c18.992-6.284,36.391-16.963,50.94-31.519C372.476,369.378,386,336.732,386,302
			c0-5.523-4.477-10-10-10c-46.264,0-86.955,24.297-110,60.797v-93.3c67.572-6.738,120-81.329,120-149.496V40.55
			c0-5.097-3.834-9.378-8.9-9.939c-12.968-1.436-26.127-0.304-38.584,3.248c-5.127-12.188-12.475-23.209-20.917-31.145
			c-2.411-2.266-5.788-3.193-9.017-2.476c-15.531,3.449-30.319,12.679-41.865,25.877c-2.633-2.41-4.252-3.746-4.371-3.844
			c-3.688-3.028-9.003-3.028-12.691,0c-0.119,0.097-1.738,1.433-4.371,3.844C233.737,12.917,218.95,3.687,203.419,0.238
			c-3.229-0.717-6.606,0.209-9.017,2.476c-8.441,7.934-15.788,18.954-20.915,31.14c-12.461-3.549-25.618-4.678-38.585-3.243
			c-5.068,0.56-8.902,4.841-8.902,9.939V110c0,68.185,52.442,142.759,120,149.496v93.3C222.955,316.297,182.264,292,136,292
			c-5.523,0-10,4.477-10,10c0,34.732,13.524,67.377,38.077,91.919c14.552,14.559,31.951,25.238,50.944,31.522
			c-9.856,7.206-17.847,16.971-22.897,28.493C186.809,452.649,181.416,452,176,452c-27.189,0-51.767,15.812-63.252,40H76
			c-5.523,0-10,4.477-10,10s4.477,10,10,10c5,0,349.067,0,360,0c5.523,0,10-4.477,10-10S441.523,492,436,492z M365.509,312.496
			c-2.39,25.424-13.445,49.006-31.732,67.285c-18.275,18.284-41.857,29.338-67.281,31.729
			C271.468,359.214,313.213,317.468,365.509,312.496z M366,50.003V110c0,42.404-24.161,88.934-59.089,113.139
			C318.796,201.724,326,172.57,326,140c0-20.891-6.377-42.422-18.927-64.096c8.078-8.799,18.032-15.71,29.138-20.156
			C345.641,51.957,355.795,50.011,366,50.003z M307.694,21.239c4.816,5.532,9.039,12.441,12.245,19.997
			c-8.851,4.593-16.973,10.494-24.085,17.494c-5.195-7.105-10.415-13.305-15.013-18.373
			C288.412,31.327,297.784,24.643,307.694,21.239z M204.306,21.239c9.91,3.404,19.282,10.088,26.853,19.118
			c-4.599,5.068-9.818,11.268-15.013,18.373c-7.111-6.999-15.232-12.902-24.083-17.499C195.269,33.677,199.491,26.77,204.306,21.239
			z M146,110V50.003c10.208,0.007,20.365,1.95,29.797,5.739c11.1,4.452,21.053,11.366,29.13,20.163
			C192.377,97.578,186,119.11,186,140c0,32.57,7.204,61.724,19.089,83.139C170.121,198.906,146,152.359,146,110z M222.352,212.993
			C211.807,193.661,206,167.738,206,140c0-19.071,6.606-39.162,19.636-59.716c8.352-13.178,19.235-26.159,30.364-36.805
			c11.092,10.612,21.984,23.584,30.364,36.805C299.394,100.838,306,120.929,306,140c0,27.738-5.807,53.661-16.352,72.993
			c-6.763,12.399-15.041,20.976-23.648,24.783V190c0-5.523-4.477-10-10-10c-5.523,0-10,4.477-10,10v47.776
			C237.393,233.969,229.114,225.392,222.352,212.993z M178.219,379.777c-18.283-18.275-29.338-41.856-31.728-67.281
			c52.296,4.972,94.041,46.717,99.013,99.013C220.08,409.119,196.498,398.064,178.219,379.777z M135.997,492
			c9.286-12.345,24.012-20,40.003-20c6.256,0,12.511,1.235,18.589,3.672c5.547,2.226,11.809-0.892,13.373-6.668
			C213.862,447.216,233.616,432,256,432c22.384,0,42.138,15.216,48.038,37.004c1.562,5.771,7.82,8.896,13.373,6.668
			C323.489,473.236,329.744,472,336,472c15.991,0,30.718,7.655,40.003,20H135.997z"/>
	</g>
</g>
<g>
</g>
<g>
</g>
<g>
</g>
<g>
</g>
<g>
</g>
<g>
</g>
<g>
</g>
<g>
</g>
<g>
</g>
<g>
</g>
<g>
</g>
<g>
</g>
<g>
</g>
<g>
</g>
<g>
</g>
</svg>
