<?xml version="1.0" encoding="iso-8859-1"?>
<!-- Generator: Adobe Illustrator 19.0.0, SVG Export Plug-In . SVG Version: 6.00 Build 0)  -->
<svg version="1.1" id="Capa_1" xmlns="http://www.w3.org/2000/svg" xmlns:xlink="http://www.w3.org/1999/xlink" x="0px" y="0px"
	 viewBox="0 0 512 512" style="enable-background:new 0 0 512 512;" xml:space="preserve">
<g>
	<g>
		<path d="M263.07,454.93c-3.9-3.91-10.24-3.91-14.14,0c-3.91,3.9-3.91,10.24,0,14.14c3.9,3.91,10.24,3.91,14.14,0
			C266.98,465.17,266.98,458.83,263.07,454.93z"/>
	</g>
</g>
<g>
	<g>
		<path d="M480.934,387.756l-33.908-60.015L264.706,5.081C262.932,1.941,259.606,0,256,0c-3.606,0-6.932,1.941-8.706,5.081
			L31.065,387.755c-6.935,11.963-4.836,27.382,5.001,36.688C95.73,480.905,173.836,512,256,512
			c82.174,0,160.282-31.095,219.932-87.555C485.771,415.138,487.869,399.718,480.934,387.756z M256,30.327l170.096,301.027
			C384.029,382.676,322.358,412,256,412s-128.028-29.323-170.095-80.644L256,30.327z M462.186,409.917
			C406.264,462.849,333.039,492,256,492c-77.028,0-150.253-29.151-206.188-82.084c-3.18-3.008-3.782-8.118-1.432-12.15
			c0.022-0.039,0.045-0.078,0.067-0.116l26.975-47.74C119.872,400.605,184.493,432,256,432c71.441,0,136.085-31.345,180.579-82.092
			l26.974,47.741c0.022,0.039,0.044,0.078,0.067,0.116C465.97,401.798,465.368,406.907,462.186,409.917z"/>
	</g>
</g>
<g>
	<g>
		<path d="M375.879,434.226c-2.266-5.037-8.186-7.283-13.222-5.016c-21.681,9.755-44.644,16.473-68.251,19.967
			c-5.463,0.809-9.236,5.893-8.428,11.356c0.735,4.967,5.004,8.537,9.879,8.537c0.487,0,0.98-0.036,1.477-0.109
			c25.429-3.764,50.167-11.001,73.528-21.512C375.899,445.183,378.145,439.263,375.879,434.226z"/>
	</g>
</g>
<g>
	<g>
		<path d="M256,312c-5.523,0-10,4.477-10,10v20c0,5.523,4.477,10,10,10c5.523,0,10-4.477,10-10v-20C266,316.477,261.523,312,256,312
			z"/>
	</g>
</g>
<g>
	<g>
		<path d="M356,312c-5.523,0-10,4.477-10,10v20c0,5.523,4.477,10,10,10s10-4.477,10-10v-20C366,316.477,361.523,312,356,312z"/>
	</g>
</g>
<g>
	<g>
		<path d="M156,312c-5.523,0-10,4.477-10,10v20c0,5.523,4.477,10,10,10s10-4.477,10-10v-20C166,316.477,161.523,312,156,312z"/>
	</g>
</g>
<g>
	<g>
		<path d="M206,229c-5.523,0-10,4.477-10,10v20c0,5.523,4.477,10,10,10s10-4.477,10-10v-20C216,233.477,211.523,229,206,229z"/>
	</g>
</g>
<g>
	<g>
		<path d="M256,146c-5.523,0-10,4.477-10,10v20c0,5.523,4.477,10,10,10c5.523,0,10-4.477,10-10v-20C266,150.477,261.523,146,256,146
			z"/>
	</g>
</g>
<g>
	<g>
		<path d="M306,229c-5.523,0-10,4.477-10,10v20c0,5.523,4.477,10,10,10s10-4.477,10-10v-20C316,233.477,311.523,229,306,229z"/>
	</g>
</g>
<g>
</g>
<g>
</g>
<g>
</g>
<g>
</g>
<g>
</g>
<g>
</g>
<g>
</g>
<g>
</g>
<g>
</g>
<g>
</g>
<g>
</g>
<g>
</g>
<g>
</g>
<g>
</g>
<g>
</g>
</svg>
