<?xml version="1.0" encoding="iso-8859-1"?>
<!-- Generator: Adobe Illustrator 19.0.0, SVG Export Plug-In . SVG Version: 6.00 Build 0)  -->
<svg version="1.1" id="Capa_1" xmlns="http://www.w3.org/2000/svg" xmlns:xlink="http://www.w3.org/1999/xlink" x="0px" y="0px"
	 viewBox="0 0 511.999 511.999" style="enable-background:new 0 0 511.999 511.999;" xml:space="preserve">
<g>
	<g>
		<path d="M470.925,31.372c-3.006-2.705-7.344-3.333-10.996-1.592c-3.649,1.742-5.891,5.511-5.678,9.549l0.963,18.257l-18.257,0.957
			c-2.647,0.139-5.133,1.324-6.906,3.294c-1.774,1.971-2.692,4.565-2.554,7.213l0.957,18.249l-18.26,0.957
			c-2.743,0.144-5.169,1.382-6.88,3.267c1.696-1.899,2.673-4.44,2.529-7.182l-0.956-18.26l18.26-0.957
			c2.647-0.139,5.133-1.324,6.906-3.294c1.774-1.971,2.692-4.565,2.554-7.213l-0.957-18.25l18.25-0.957
			c4.037-0.212,7.55-2.834,8.9-6.646c1.35-3.811,0.272-8.06-2.731-10.767c-28.74-25.889-72.954-23.576-98.833,5.178
			C155.06,247.708,155.546,247.083,40.187,375.946c-26.246,29.147-30.462,73.65-6.494,104.593
			c31.338,40.459,90.068,41.65,123.095,4.98C666.587-82.235,60.552,592.6,476.115,130.213
			C501.991,101.466,499.678,57.253,470.925,31.372z M372.097,36.552c10.891-12.1,26.311-17.698,41.629-16.35
			c-0.061,0.102-2.797,2.795-2.565,7.225l0.957,18.25l-18.26,0.957c-5.514,0.289-9.75,4.993-9.461,10.507l0.956,18.26l-18.25,0.957
			c-2.647,0.139-5.133,1.324-6.906,3.294s-2.692,4.565-2.554,7.213l0.957,18.25l-18.26,0.957c-2.658,0.139-5.152,1.334-6.928,3.318
			c-1.775,1.985-2.685,4.595-2.528,7.253l1.063,18.072l-18.423,1.083c-5.513,0.324-9.718,5.056-9.394,10.568l1.059,18.009
			l-14.06,0.737l-19.207-17.293L372.097,36.552z M400.732,98.762l0.956,18.26l-18.249,0.957c-5.514,0.289-9.75,4.993-9.461,10.507
			l0.953,18.186l-18.022,0.828c-2.638,0.121-5.121,1.283-6.905,3.227c1.749-1.979,2.644-4.568,2.488-7.204l-1.06-18.009
			l18.196-0.954c2.647-0.139,5.133-1.324,6.906-3.294s2.692-4.565,2.554-7.213l-0.957-18.25l18.25-0.957
			c2.743-0.144,5.169-1.382,6.88-3.267C401.566,93.478,400.588,96.019,400.732,98.762z M348.23,176.392l-18.075,0.831
			c-2.647,0.122-5.137,1.291-6.924,3.247c1.76-1.98,2.662-4.578,2.506-7.224l-1.063-18.073l18.424-1.083
			c2.633-0.155,5.097-1.346,6.857-3.309c-1.769,1.956-2.696,4.531-2.574,7.166L348.23,176.392z M178.274,251.843l7.411,6.674
			c4.07,3.663,4.473,9.973,0.722,14.142l-19.993,22.316l-14.833-13.351L178.274,251.843z M141.916,472.155
			c-24.372,27.062-68.403,27.136-92.415-3.86c-17.285-22.314-14.901-56.263,5.56-78.985l83.175-92.796l14.836,13.354l-85.462,95.394
			c-14.752,16.389-13.423,41.722,2.961,56.47c16.393,14.755,41.73,13.426,56.497-2.979l85.441-95.362l14.884,13.403L141.916,472.155
			z M240.737,361.904l-14.887-13.406l20.015-22.338c3.684-4.093,9.997-4.46,14.123-0.739l7.443,6.703L240.737,361.904z
			 M280.795,317.249l-7.423-6.685c-12.255-11.047-31.214-10.175-42.385,2.234c-6.93,7.734-111.937,124.935-118.798,132.594
			c-7.395,8.217-20.02,8.877-28.241,1.478c-8.19-7.372-8.852-20.037-1.462-28.249l118.799-132.604
			c11.09-12.321,10.101-31.272-2.221-42.362l-7.426-6.687l66.901-74.292l22.284,20.065c1.841,1.658,4.226,2.568,6.69,2.568
			c0.174,0,0.349-0.004,0.523-0.014l28.244-1.48c2.645-0.139,5.125-1.323,6.899-3.289c-1.77,1.97-2.688,4.56-2.549,7.205
			l1.479,28.244c0.139,2.648,1.324,5.133,3.294,6.907l22.294,20.073L280.795,317.249z M461.254,116.835L361.078,228.097
			l-19.218-17.302l-0.736-14.06l18.013-0.828c2.648-0.122,5.142-1.291,6.929-3.249c1.787-1.96,2.722-4.548,2.6-7.197l-0.85-18.445
			l18.085-0.831c2.659-0.122,5.161-1.3,6.949-3.273c1.788-1.974,2.715-4.578,2.575-7.236l-0.956-18.25l18.248-0.958
			c5.514-0.289,9.75-4.993,9.461-10.507l-0.956-18.26l18.26-0.957c2.647-0.139,5.132-1.324,6.906-3.294
			c1.774-1.971,2.692-4.565,2.554-7.213l-0.957-18.249l18.26-0.957c2.647-0.139,5.133-1.324,6.907-3.295
			c0.001-0.001,0.002-0.003,0.004-0.004C476.1,88.867,472.118,104.763,461.254,116.835z"/>
	</g>
</g>
<g>
</g>
<g>
</g>
<g>
</g>
<g>
</g>
<g>
</g>
<g>
</g>
<g>
</g>
<g>
</g>
<g>
</g>
<g>
</g>
<g>
</g>
<g>
</g>
<g>
</g>
<g>
</g>
<g>
</g>
</svg>
