<?xml version="1.0" encoding="iso-8859-1"?>
<!-- Generator: Adobe Illustrator 19.0.0, SVG Export Plug-In . SVG Version: 6.00 Build 0)  -->
<svg version="1.1" id="Capa_1" xmlns="http://www.w3.org/2000/svg" xmlns:xlink="http://www.w3.org/1999/xlink" x="0px" y="0px"
	 viewBox="0 0 512 512" style="enable-background:new 0 0 512 512;" xml:space="preserve">
<g>
	<g>
		<path d="M275.995,411.997c-5.52,0-10,4.48-10,10s4.48,10,10,10c5.52,0,10-4.48,10-10S281.514,411.997,275.995,411.997z"/>
	</g>
</g>
<g>
	<g>
		<path d="M255.995,0.005c-5.522,0-10,4.477-10,10v45.999c0,5.523,4.478,10,10,10s10-4.477,10-10V10.005
			C265.995,4.482,261.517,0.005,255.995,0.005z"/>
	</g>
</g>
<g>
	<g>
		<path d="M501.99,246h-45.999c-5.522,0-10,4.477-10,10s4.478,10,10,10h45.999c5.522,0,10-4.477,10-10S507.512,246,501.99,246z"/>
	</g>
</g>
<g>
	<g>
		<path d="M55.999,246H10c-5.522,0-10,4.477-10,10s4.478,10,10,10h45.999c5.522,0,10-4.477,10-10S61.521,246,55.999,246z"/>
	</g>
</g>
<g>
	<g>
		<path d="M472.501,131.002c-2.761-4.783-8.877-6.422-13.66-3.66l-34.639,20c-4.783,2.762-6.422,8.877-3.66,13.66
			c2.774,4.805,8.9,6.409,13.66,3.66l34.639-20C473.624,141.9,475.263,135.785,472.501,131.002z"/>
	</g>
</g>
<g>
	<g>
		<path d="M380.993,39.494c-4.785-2.762-10.898-1.123-13.66,3.66l-20,34.639c-2.762,4.783-1.123,10.899,3.66,13.66
			c4.767,2.751,10.889,1.139,13.66-3.66l20-34.639C387.414,48.371,385.775,42.255,380.993,39.494z"/>
	</g>
</g>
<g>
	<g>
		<path d="M164.657,77.793l-20-34.639c-2.761-4.783-8.877-6.421-13.66-3.66c-4.783,2.761-6.422,8.877-3.66,13.66l20,34.639
			c1.853,3.208,5.213,5.001,8.67,5.001c1.696,0,3.416-0.432,4.99-1.341C165.78,88.692,167.419,82.576,164.657,77.793z"/>
	</g>
</g>
<g>
	<g>
		<path d="M87.788,147.342l-34.639-20c-4.784-2.761-10.898-1.122-13.66,3.66c-2.761,4.783-1.123,10.898,3.66,13.66l34.639,20
			c4.767,2.751,10.889,1.139,13.66-3.66C94.21,156.219,92.571,150.104,87.788,147.342z"/>
	</g>
</g>
<g>
	<g>
		<path d="M502,311.999H395.157c7.108-17.708,10.835-36.786,10.835-55.999c0-82.708-67.289-149.997-149.997-149.997
			S105.998,173.292,105.998,256c0,19.206,3.729,38.288,10.839,55.999H10c-5.522,0-10,4.477-10,10v179.996c0,5.523,4.478,10,10,10
			c10.35,0,478.009,0,492,0c5.522,0,10-4.477,10-10V321.999C512,316.476,507.522,311.999,502,311.999z M255.995,126.003
			c71.682,0,129.997,58.317,129.997,129.997c0,19.398-4.371,38.629-12.661,55.999h-38.329c-27.548,0-54.265,5.252-79.493,15.594
			c-25.239-10.342-51.962-15.594-79.512-15.594h-37.333c-8.292-17.372-12.666-36.61-12.666-55.999
			C125.998,184.319,184.313,126.003,255.995,126.003z M20,491.995v-39.999h155.997c27.418,0,51.837,15.928,63.252,39.999H20z
			 M322.982,491.994c-2.99-14.666-8.149-28.75-15.401-41.969c-2.657-4.842-8.737-6.614-13.577-3.957
			c-4.843,2.656-6.614,8.735-3.958,13.577c5.621,10.245,9.796,21.086,12.467,32.349h-41.649
			c-12.604-35.689-46.454-59.999-84.868-59.999H20v-39.999h155.997c21.782,0,43.341,5.514,62.348,15.946
			c4.822,2.647,10.91,0.907,13.578-3.955c2.657-4.841,0.887-10.92-3.955-13.578c-21.947-12.047-46.834-18.414-71.971-18.414H20
			v-39.999h155.997v0.002c26.245,0,51.657,5.25,75.529,15.604c0.084,0.036,0.168,0.071,0.253,0.105
			c58.992,25.698,101.66,79.941,111.858,144.287H322.982z M492,491.995H383.856c-1.953-13.655-5.242-27.035-9.823-39.999H492
			V491.995z M492,431.997H365.772c-6.77-14.265-15.083-27.646-24.843-39.999H492V431.997z M492,371.998H335.003
			c-3.882,0-7.758,0.158-11.582,0.452c-12.899-12.726-27.219-23.612-42.775-32.555c17.53-5.238,35.73-7.896,54.357-7.896
			c15.238,0,141.644,0,156.997,0V371.998z"/>
	</g>
</g>
<g>
</g>
<g>
</g>
<g>
</g>
<g>
</g>
<g>
</g>
<g>
</g>
<g>
</g>
<g>
</g>
<g>
</g>
<g>
</g>
<g>
</g>
<g>
</g>
<g>
</g>
<g>
</g>
<g>
</g>
</svg>
