<?xml version="1.0" encoding="iso-8859-1"?>
<!-- Generator: Adobe Illustrator 19.0.0, SVG Export Plug-In . SVG Version: 6.00 Build 0)  -->
<svg version="1.1" id="Capa_1" xmlns="http://www.w3.org/2000/svg" xmlns:xlink="http://www.w3.org/1999/xlink" x="0px" y="0px"
	 viewBox="0 0 512 512" style="enable-background:new 0 0 512 512;" xml:space="preserve">
<g>
	<g>
		<path d="M103.07,454.93c-3.9-3.91-10.24-3.91-14.14,0c-3.91,3.9-3.91,10.24,0,14.14c3.9,3.91,10.24,3.91,14.14,0
			C106.98,465.17,106.98,458.83,103.07,454.93z"/>
	</g>
</g>
<g>
	<g>
		<path d="M296,0H56C39.458,0,26,13.458,26,30v452c0,16.542,13.458,30,30,30h240c16.542,0,30-13.458,30-30V30
			C326,13.458,312.542,0,296,0z M306,482c0,5.514-4.486,10-10,10H56c-5.514,0-10-4.486-10-10V160h260V482z M86,70
			c0-5.514,4.486-10,10-10s10,4.486,10,10c0,8.262-5.713,24.367-10,29.158C91.713,94.367,86,78.262,86,70z M166,70
			c0-5.514,4.486-10,10-10c5.514,0,10,4.486,10,10c0,8.262-5.713,24.367-10,29.158C171.713,94.367,166,78.262,166,70z M246,70
			c0-5.514,4.486-10,10-10c5.514,0,10,4.486,10,10c0,8.262-5.713,24.367-10,29.158C251.713,94.367,246,78.262,246,70z M306,140h-40
			v-23.184c5.088-3.464,9.561-9.744,13.364-18.8C283.333,88.562,286,77.303,286,70c0-16.542-13.458-30-30-30s-30,13.458-30,30
			c0,7.303,2.667,18.562,6.636,28.015c3.803,9.057,8.275,15.336,13.364,18.8V140h-60v-23.184c5.088-3.464,9.561-9.744,13.364-18.8
			C203.333,88.562,206,77.303,206,70c0-16.542-13.458-30-30-30s-30,13.458-30,30c0,7.303,2.667,18.562,6.636,28.015
			c3.803,9.057,8.275,15.336,13.364,18.8V140h-60v-23.184c5.088-3.464,9.561-9.744,13.364-18.8C123.333,88.562,126,77.303,126,70
			c0-16.542-13.458-30-30-30S66,53.458,66,70c0,7.303,2.667,18.562,6.636,28.015c3.803,9.057,8.275,15.336,13.364,18.8V140H46V30
			c0-5.514,4.486-10,10-10h240c5.514,0,10,4.486,10,10V140z"/>
	</g>
</g>
<g>
	<g>
		<path d="M424.228,70.316C422.361,67.613,419.285,66,416,66c-3.285,0-6.361,1.613-8.228,4.316C401.45,79.47,346,160.759,346,196
			c0,35.202,26.123,64.406,60,69.274V502c0,5.523,4.477,10,10,10s10-4.477,10-10V265.274c33.877-4.869,60-34.072,60-69.274
			C486,160.759,430.55,79.47,424.228,70.316z M416,205.158c-4.287-4.791-10-20.896-10-29.158c0-5.514,4.486-10,10-10
			c5.514,0,10,4.486,10,10C426,184.262,420.287,200.367,416,205.158z M426,244.994v-22.178c5.088-3.464,9.561-9.744,13.364-18.8
			C443.333,194.562,446,183.303,446,176c0-16.542-13.458-30-30-30s-30,13.458-30,30c0,7.303,2.667,18.562,6.636,28.015
			c3.803,9.057,8.275,15.336,13.364,18.8v22.178c-22.795-4.646-40-24.847-40-48.994c0-19.337,27.964-68.435,50.001-102.07
			C438.038,127.557,466,176.647,466,196C466,220.146,448.795,240.348,426,244.994z"/>
	</g>
</g>
<g>
	<g>
		<path d="M256,452H136c-5.523,0-10,4.477-10,10s4.477,10,10,10h120c5.523,0,10-4.477,10-10S261.523,452,256,452z"/>
	</g>
</g>
<g>
	<g>
		<path d="M184.228,210.316C182.361,207.613,179.285,206,176,206c-3.285,0-6.361,1.613-8.228,4.316
			C161.45,219.47,106,300.759,106,336c0,38.598,31.402,70,70,70s70-31.402,70-70C246,300.759,190.55,219.47,184.228,210.316z
			 M176,386c-27.57,0-50-22.43-50-50c0-19.338,27.964-68.436,50.001-102.071C198.038,267.557,226,316.647,226,336
			C226,363.57,203.57,386,176,386z"/>
	</g>
</g>
<g>
</g>
<g>
</g>
<g>
</g>
<g>
</g>
<g>
</g>
<g>
</g>
<g>
</g>
<g>
</g>
<g>
</g>
<g>
</g>
<g>
</g>
<g>
</g>
<g>
</g>
<g>
</g>
<g>
</g>
</svg>
