<?xml version="1.0" encoding="iso-8859-1"?>
<!-- Generator: Adobe Illustrator 19.0.0, SVG Export Plug-In . SVG Version: 6.00 Build 0)  -->
<svg version="1.1" id="Capa_1" xmlns="http://www.w3.org/2000/svg" xmlns:xlink="http://www.w3.org/1999/xlink" x="0px" y="0px"
	 viewBox="0 0 512.001 512.001" style="enable-background:new 0 0 512.001 512.001;" xml:space="preserve">
<g>
	<g>
		<path d="M358.998,80.004c-5.52,0-10,4.48-10,10c0,5.52,4.48,10,10,10c5.52,0,10-4.48,10-10
			C368.998,84.484,364.518,80.004,358.998,80.004z"/>
	</g>
</g>
<g>
	<g>
		<path d="M511.997,396.001c0-13.036-8.361-24.152-20-28.28v-91.719c0-5.523-4.477-10-10-10s-10,4.477-10,10v89.999h-95.999
			c-16.576,0-30,13.425-30,30c0,13.036,8.361,24.152,20,28.28V492h-79.999V346.001h89.999c16.577,0,30-13.425,30-30
			c0-16.542-13.458-30-30-30H266V171.125c3.859-4.122,24.152-11.122,52.999-11.122c30.059,0,47.243,7.454,50.038,10.901
			c0.606,5.821,5.651,9.575,10.957,9.049c0.11-0.011,0.216-0.032,0.325-0.047c4.639-0.612,8.22-4.366,8.64-9.01
			c2.823-3.453,20.005-10.893,50.039-10.893c28.476,0,48.605,6.818,52.851,10.995c0.198,0.648,0.264,0.841,0.568,1.86
			c1.803,6.058,8.715,8.928,14.281,5.969c5.994-3.197,6.581-10.389,3.388-16.513c-32.108-100-141.768-161.726-252.46-162.297
			c-0.003,0-0.006,0-0.01,0c-0.023,0-0.046,0-0.07-0.001c-0.031,0-0.061-0.001-0.092-0.001c-0.009,0-0.018,0-0.028,0
			c-0.969-0.018-1.943-0.018-2.868,0c-0.002,0-0.005,0-0.007,0c-0.007,0-0.015,0-0.022,0c-0.037,0.001-0.077,0-0.114,0.001
			c-0.005,0-0.011,0-0.016,0C142.691,0.586,33.698,63.107,1.902,162.349c-4.205,8.129-1.178,16.299,6.533,17.519
			c5.026,0.802,9.789-2.273,11.18-7.107c0.168-0.585,0.342-1.172,0.523-1.765c4.138-4.135,24.303-10.993,52.864-10.993
			c30.034,0,47.216,7.44,50.039,10.893c0.46,5.116,4.741,9.079,9.923,9.105c0.013,0,0.025,0.002,0.037,0.002c0,0,0,0,0.001,0
			c0.004,0,0.007,0,0.011,0c5.062,0,9.324-3.839,9.917-8.801c3.678-4.111,24.049-11.199,53.07-11.199
			c29.913,0,47.072,7.379,49.999,10.85v115.149H136.001c-16.577,0-30,13.425-30,30c0,16.542,13.458,30,30,30H226V492h-79.999
			v-67.703c11.391-4.019,20-14.966,20-28.296c0-16.542-13.458-30-30-30H40.002v-89.999c0-5.523-4.477-10-10-10
			c-5.523,0-10,4.477-10,10v91.703c-11.391,4.019-20,14.966-20,28.296c0,13.036,8.361,24.152,20,28.28V492h-10
			c-5.523,0-10,4.477-10,10s4.477,10,10,10h491.994c5.523,0,10-4.477,10-10s-4.477-10-10-10h-10v-67.703
			C503.388,420.277,511.997,409.331,511.997,396.001z M266,20.743c23.404,3.389,46.598,18.395,63.422,41.438
			c3.258,4.461,9.514,5.437,13.973,2.18c4.461-3.257,5.437-9.513,2.18-13.973c-5.898-8.079-12.503-15.322-19.614-21.641
			c69.464,17.635,127.906,60.61,155.572,116.331c-12.897-3.446-28.244-5.074-42.536-5.074c-19.844,0-39.779,3.014-53.273,9.433
			c-1.382-6.333-2.985-12.505-4.566-18.565c-0.433-1.661-0.864-3.311-1.285-4.949c-1.376-5.348-6.826-8.567-12.176-7.193
			c-5.349,1.376-8.569,6.828-7.193,12.176c0.427,1.66,0.863,3.332,1.302,5.015c0.893,3.422,1.79,6.884,2.647,10.371
			c-13.384-4.444-30.264-6.287-45.454-6.287c-14.665,0-36.918,2.116-52.999,8.539V20.743z M126.001,492H40.002V426h85.999V492z
			 M136.001,406.001H30.002c-5.514,0-10-4.486-10-10c0-5.521,4.478-10,10-10h105.999c5.514,0,10,4.486,10,10
			C146.001,401.522,141.523,406.001,136.001,406.001z M125.79,149.199c-13.485-6.259-33.187-9.195-52.789-9.195
			c-14.297,0-29.649,1.629-42.544,5.07C58.295,88.98,117.375,45.791,187.501,28.387C153.703,58.388,133.602,104.702,125.79,149.199z
			 M196,140.004c-14.065,0-34.002,1.792-49.488,7.133c6.452-32.454,19.151-61.976,36.682-84.776
			C201.46,38.605,223.471,24.103,246,20.757v127.237C232.666,142.566,214.294,140.004,196,140.004z M136.001,326.002
			c-5.514,0-10-4.486-10-10c0-5.521,4.478-10,10-10h239.997c5.514,0,10,4.486,10,10c0,5.521-4.478,10-10,10H136.001z M266,492h-20
			V346.001h20V492z M471.997,492h-85.999V426h85.999V492z M481.997,406.001H375.998c-5.514,0-10-4.486-10-10c0-5.521,4.477-10,10-10
			h105.999c5.514,0,10,4.486,10,10C491.997,401.522,487.519,406.001,481.997,406.001z"/>
	</g>
</g>
<g>
</g>
<g>
</g>
<g>
</g>
<g>
</g>
<g>
</g>
<g>
</g>
<g>
</g>
<g>
</g>
<g>
</g>
<g>
</g>
<g>
</g>
<g>
</g>
<g>
</g>
<g>
</g>
<g>
</g>
</svg>
